<?xml version="1.0" encoding="UTF-8"?>
<!DOCTYPE svg PUBLIC "-//W3C//DTD SVG 1.1//EN" "https://www.w3.org/Graphics/SVG/1.1/DTD/svg11.dtd">
<svg xmlns="https://www.w3.org/2000/svg" width="430" height="493" viewBox="-215 -246.5 430 493">
 <defs>
 <style type="text/css">
  <![CDATA[
  .str0 {stroke:#373435}
  .str1 {stroke:white}
  .fil1 {fill:white}
  .fil0 {fill:#373435}
  .fil2 {fill:#00AFEF} /*azul */
  .fil3 {fill:#00A859} /*verde */
  .fil4 {fill:#ED3237} /*vermelho*/
  .fil5 {fill:#FFF212} /*amarelo */
  .fil6 {fill:none}
  ]]>
 </style>
 </defs>
 <g fill-rule="evenodd">
 <path class="fil0 str0" d="M92.55 239.1 l-6.6 -22.5 4.2 -18.6 c 0.6,-3.3 -23.4,20.1 -85.8,20.7 l0 -21.6 10.2 -16.8 -31.5 0 8.1 16.8 0 21.6 c -29.4,0.6 -56.4,-8.7 -81.3,-19.8 l3.9 18.3 -3.9 26.1 c -45.3,-6.6 -92.1,-60.9 -101.4,-86.4 l20.7 5.1 3 -20.4 c 13.2,18.9 28.5,34.8 45.9,48.9 l-19.2 -33.9 19.8 -18.9 16.2 16.2 -0.3 -3.3 c -7.2,-6.3 -12,-13.8 -15.3,-21.6 -1.5,-0.9 -3.3,1.5 -5.7,-0.6 0,-0.3 -0.6,-1.2 -0.9,-2.4 -10.2,0 -21.3,1.2 -31.2,-4.5 -6.0,-3.9 -12.9,-7.2 -13.2,-14.7 8.4,-5.1 18.6,-3.6 28.2,-2.7 l-5.1 -22.5 c -1.5,-0.9 -3.0,0.3 -4.5,-1.2 -0.9,-0.9 -0.6,-3 -1.2,-3.9 -14.4,-3.6 -27.6,-12.9 -33.9,-26.7 -0.6,-1.8 -1.5,-3.6 -0.3,-5.4 8.7,-2.7 19.2,1.5 26.7,6.9 l0.9 -0.3 1.5 -21.3 c -3.0,-0.9 -2.4,-5.1 -3.9,-7.5 l-12.9 -8.1 c -7.2,-6.3 -15,-17.1 -14.4,-28.8 l1.8 -1.2 c 7.8,0 16.5,4.8 22.2,10.5 0.9,0 1.8,0.9 2.7,0.3 l3.6 -16.8 c -0.6,-1.5 -0.9,-3.3 -3.0,-3.9 l-34.8 -0.9 -16.8 -21.6 30.6 2.4 0.3 -1.8 c -3.0,-5.7 -6.6,-13.2 -6.3,-20.1 3.3,-3 9.0,0 12.6,1.5 l13.5 9 2.4 -13.5 -46.2 -14.4 20.1 -14.7 -5.7 -24.9 29.1 14.4 c 1.5,-7.2 2.4,-19.5 10.2,-25.2 6.9,4.2 9.3,15.6 9.9,23.7 l1.2 0.6 12.3 -8.1 -0.3 -1.8 -46.5 -34.8 24 -3 1.8 -27 51.9 50.7 25.5 0 -49.8 -72.6 25.2 1.5 8.4 -23.1 43.8 94.2 18.3 0 -27.3 -104.4 23.4 9 15 -15.9 c 6.0,36.3 8.1,74.1 11.7,111.3 l15 0 10.5 -111.3 17.7 16.8 21 -10.8 -26.4 105.3 17.4 0 42.6 -92.1 9.6 24 25.8 -1.8 -49.8 69.9 28.5 0 47.4 -47.4 0.9 23.7 23.7 7.5 -12.6 8.4 -34.5 24.6 13.8 10.2 10.5 -22.5 1.5 0.3 c 4.2,6.3 7.8,14.4 9.3,21.9 l30.6 -18.3 -7.5 28.5 20.7 14.4 -12.9 4.2 -35.1 10.5 3 16.2 c 6.3,-5.1 15.3,-11.4 24.6,-12.3 1.2,5.7 -2.7,14.7 -6.0,21 l31.5 0 -16.5 18.9 -40.8 0 -0.3 2.7 c 5.1,5.7 4.8,15 8.1,21 6.3,-5.1 15.3,-10.2 23.7,-11.4 0,9 -3.6,21.3 -11.7,27.3 -3.9,2.7 -7.8,-0.3 -12,1.2 l-5.1 6.3 c 1.2,3 5.1,0 7.5,0.6 0.6,1.2 0,2.7 0.3,4.5 l-11.7 -0.3 c -0.3,9 7.5,21.9 -1.8,31.5 -0.6,1.2 -2.7,0.3 -4.5,1.5 0,1.2 -1.2,0.9 -1.5,2.4 -1.5,4.5 -1.2,6.9 -1.2,10.2 l9.9 -7.5 c 0,-3.3 0.9,-7.2 3.3,-10.5 7.8,-5.1 17.1,-6.3 25.8,-6.9 0,7.5 -6.3,15 -11.4,20.4 -2.4,2.7 -7.2,4.5 -11.1,3.9 -1.5,-0.6 -4.2,-3.9 -6.6,-2.1 l-7.8 5.7 c 2.1,3 6.0,0.6 9.6,3 0,1.2 -1.5,2.7 -1.5,4.2 l-12.9 -3.9 -2.7 23.4 c -1.5,4.2 -6.9,7.8 -12,6.9 -3.0,1.8 -5.7,6.6 -5.7,10.8 3.0,1.2 6.3,-1.2 9.9,-2.4 1.2,-4.5 2.1,-8.7 7.5,-10.8 8.4,-2.1 17.4,-1.5 26.4,1.8 -1.2,6.3 -9.9,12 -17.1,16.2 -4.2,1.5 -8.1,1.5 -12.3,-0.9 -0.9,-0.9 -2.4,-3 -3.9,-3.9 l-9.9 4.8 c 0.9,1.5 3.6,2.7 6.0,3.9 0.6,1.8 -0.9,3.9 -2.7,4.8 l-8.4 -8.1 c 0,3.3 -11.1,24.9 -11.7,24.9 l12.9 -12 19.2 18.6 -19.2 32.7 c 18,-10.8 33.3,-30.3 45.0,-47.4 l2.7 20.4 19.8 -5.7 c -19.2,36.6 -55.2,71.4 -96.0,82.8zm-235.5 -246 l-4.2 -15.9 c 1.8,-0.6 1.8,-1.8 3.6,-2.7 l21.6 0 c 0.6,2.7 0,5.4 0.6,8.1 l-21.6 10.5zm2.7 49.2 l-6 -13.2 c 1.5,-2.1 1.5,-4.5 1.5,-6.6 10.2,-5.1 17.4,-12.3 22.5,-22.8 l0.9 28.5 c -8.1,3.3 -13.5,7.8 -18.6,14.1 l-0.3 0zm13.8 47.4 l-10.2 -12.3 c 0.9,-1.8 0.9,-3.6 0,-5.7 7.2,-6 12,-13.2 16.2,-24 l6.3 22.2 c -5.1,4.8 -9.0,12 -12.3,19.8 l0 0zm28.5 40.2 l-12.9 -7.5 c -0.9,-0.9 0,-2.4 0,-3.3 0.9,-2.4 -1.5,-2.7 -2.4,-5.1 6.0,-8.4 6.3,-18.3 7.8,-27 l12.6 19.8 c -4.5,7.8 -5.1,15.6 -5.1,23.1 l0 0zm29.1 2.4 l-8.1 11.7 -3 -24.6 1.2 -0.3 c 24.3,20.7 48.3,25.8 78.9,28.5 23.1,-0.9 58.8,-12.3 72.9,-24.3 0.3,-0.9 2.7,-2.4 3.9,-3.9 l0.9 0.6 c -2.7,5.4 -4.8,10.5 -2.1,15.3 1.2,2.4 3.9,3.6 5.7,6 l-1.8 8.4 c -1.2,-0.3 -11.7,-14.7 -12.6,-16.2 -39.3,24.6 -89.4,26.4 -135.9,-1.2zm164.4 -1.8 l-5.1 -23.7 c 6.0,-6.3 11.1,-12.9 15.6,-21 0,5.4 -1.8,12 3.0,17.4 0.9,1.5 3.3,2.7 6.0,3.3 1.2,2.1 1.2,6.3 2.1,9.9 l-1.2 0.3 -5.4 -5.4 c -1.5,0 -0.6,2.7 -2.7,3.3 l0 1.2 c 2.1,2.4 6.3,3.6 9.0,6 l-0.6 0.9 -20.7 7.8zm48.3 -61.2 l-4.5 -9.9 c 1.5,0 1.5,-2.7 2.7,-2.7 2.7,1.5 4.2,3.6 3.6,6.9 -0.9,1.8 -0.9,3 -1.8,5.4 l0 0.3zm-19.5 22.8 l-12 -20.1 c 3.0,-8.4 5.7,-15.6 7.5,-24.3 1.5,5.1 3.3,12.6 8.7,15 2.1,1.2 4.5,0 7.2,0.9 1.5,1.8 2.4,4.5 3.6,7.2 -0.3,1.2 -3.0,-1.5 -4.8,-1.8 -0.9,0.3 -1.8,2.7 -1.8,4.8 2.7,1.5 5.7,0.9 8.4,2.7 l0 0.9 c -7.2,4.2 -12.6,7.8 -16.8,13.8 l0 0.9zm15 -47.1 c -4.8,-4.5 -9.6,-8.7 -16.8,-12.3 l-0.3 -34.2 c 3.0,5.4 3.6,13.8 11.7,16.8 6.9,-1.5 12.3,0.3 15,6.6 -1.8,1.5 -4.5,-0.3 -6.9,-0.3 l-1.2 1.8 c 0.3,0.9 0,2.1 0,3 2.7,1.5 6.3,-0.3 10.2,0 -3.6,5.4 -9.0,10.8 -11.1,18.6 l-0.6 0zm4.5 -46.5 c -5.4,-5.1 -12.3,-9 -20.7,-12.3 -1.5,-3.6 0,-7.2 -0.6,-10.8 l30 -0.6 c -2.7,7.5 -8.1,15 -8.7,23.7z"/>
 <path class="fil1 str1" d="M0.75 145.8 c -78.9,-4.2 -115.8,-53.4 -118.5,-121.8 l0 -155.4 236.7 0 c 0,51.9 0,103.5 0,155.4 -2.1,76.2 -52.2,116.7 -118.2,121.8z"/>
 <path class="fil2" d="M0.15 140.1 c -72.9,-4.2 -108,-42.6 -114.3,-116.1 l0 -150.6 229.8 0 0 150.6 c -4.2,72.3 -48.9,113.1 -115.5,116.1z"/>
 <path class="fil1 str1" d="M2.85 112.2 c -51.9,-0.3 -88.2,-38.4 -88.8,-88.2 l0 -120.9 171.9 0 c 0,40.5 0,80.7 0,120.9 0,51.6 -38.4,87 -83.1,88.2z"/>
 <path class="fil2" d="M1.05 106.8 c -37.8,0.9 -80.4,-29.4 -82.8,-82.8 l0 -115.5 163.2 0 c 0,38.7 0,77.1 0,115.5 -3.0,61.8 -48.6,81.3 -80.4,82.8z"/>
 <path class="fil3" d="M-77.85 24 l0 -44.7 156 0 0 44.7 c 0,44.4 -35.4,78.6 -76.5,79.8 -46.8,-1.8 -79.5,-37.2 -79.5,-79.8z"/>
 <path class="fil0 str0" d="M-55.65 68.7 c -1.2,-0.3 -1.2,-1.2 -2.1,-2.1 0.6,-2.1 0,-3.6 0.9,-5.4 l11.7 -5.1 c 3.6,-3.3 8.1,-9 6.9,-15.3 0,-1.5 -1.5,-3.6 -3.3,-4.5 -3.9,-1.8 -8.1,1.8 -12,1.2 -1.2,-3 -1.8,-5.4 -5.1,-6.9 -4.2,-1.8 -9.3,-0.3 -12.9,-1.8 l0 -10.8 0.9 -0.9 c 0.6,0 2.4,-0.3 3.0,0.9 0.9,2.7 3.6,3.6 5.7,5.4 7.5,0.9 15.6,2.7 23.4,-1.8 0.9,-1.8 1.8,-3.9 -0.6,-5.1 -1.5,0 -3.0,0.6 -5.1,1.8 -1.8,-0.6 -3.0,-2.1 -2.7,-4.5 0.3,-0.9 0.6,-3.6 2.1,-4.2 l2.7 0.6 c 0.3,-1.5 0.9,-2.4 0.3,-3.9 -0.9,-0.6 -2.4,0 -3.6,-0.3 -1.8,-1.5 -1.8,-5.1 -1.8,-7.8 7.2,-3 19.8,-3.3 28.5,-2.7 0.6,2.1 -1.2,3.9 -0.3,5.7 0.3,0 0.9,0.6 1.8,1.2 0,7.2 3.0,15.3 9.6,19.8 21.6,4.2 44.1,3.3 66.6,0.9 2.7,-2.1 5.1,-5.1 5.1,-9.3 0,-2.1 -1.2,-6 -3.6,-7.5 -4.8,-3 -9.3,-1.8 -14.4,0 -10.5,6.9 -24,18 -37.2,14.4 -3.9,-1.5 -5.7,-3.6 -7.2,-6.6 -0.9,-3.3 0,-8.7 3.9,-10.8 l18.9 -5.4 0.6 0.9 c -0.6,3.9 -3.9,5.1 -6.9,7.2 -1.2,0.3 -0.9,2.1 -1.8,3.6 l-1.8 0.9 c -0.9,-0.9 -3.0,-3.3 -5.4,-1.8 -0.3,0 -0.9,0.6 -1.2,1.8 0,1.2 0.3,3.9 2.7,4.8 19.8,5.4 33.0,-27.6 54.6,-12.6 0,0.9 1.2,0.6 1.5,2.1 -5.1,-2.4 -12.6,-6.6 -18.3,-2.4 -2.4,-1.2 -7.2,0 -8.4,3 0.6,0.9 0,2.4 1.8,2.7 4.5,-3.6 11.1,-4.8 16.8,-4.2 4.5,3 8.7,9.6 7.8,15.3 -0.6,0.6 -1.8,0 -2.7,0.3 -1.5,2.1 -3.0,3.9 -5.4,5.1 -0.9,1.2 -0.9,2.4 -0.9,4.2 l1.5 0 6 -3.3 c -4.2,6.6 -13.5,4.2 -19.2,6.6 0,4.2 -2.1,10.5 1.8,13.8 2.7,3 8.1,0 11.1,2.4 l-0.3 20.1 -13.5 0 c -1.2,-1.5 -0.3,-3 -1.2,-4.8 l8.1 -3 0.9 -2.1 c -3.9,-3.6 -9.6,-4.5 -14.4,-3 l-6.9 3.3 c -2.1,0 -2.1,-1.8 -3.9,-2.4 -7.5,1.5 -10.5,7.8 -15.3,12 -4.8,0 -8.1,0 -11.4,0 -1.8,-0.9 -0.6,-2.4 -0.9,-4.2 5.4,-3 15.6,-7.2 15.6,-15.3 -12,-4.5 -22.8,6.6 -33.6,1.8 l-12 4.2 c 0,1.2 -0.9,3 -1.2,4.2 -5.4,1.2 -10.5,3 -12.9,8.1 -2.7,3 -7.2,0.3 -10.8,1.5 l-0.6 0z"/>
 <path class="fil0 str0" d="M66.75 24.3 c 3.6,-4.8 5.4,-11.1 2.1,-17.1 l1.5 1.5 c 2.7,4.8 0.9,12 -3.3,15.6 l-0.3 0z"/>
 <path class="fil0 str0" d="M175.95 -45.3 l0 -1.5 c 0.6,-0.3 2.4,-0.3 2.7,0.3 l-2.7 1.2z"/>
 <g>
  <path class="fil3" d="M51.45 182.4 l30 -25.2 c 0,2.7 3.3,8.1 1.2,10.8 -9.6,6.6 -20.4,10.5 -31.2,14.4z"/>
  <path class="fil3" d="M-55.05 181.2 c -12.3,-3.6 -24.6,-10.5 -34.8,-17.4 l0.6 -1.2 c 0.6,1.8 3.0,2.7 5.4,2.7 2.4,-0.6 3.3,-3.6 2.1,-6.3 l26.7 22.2z"/>
  <path class="fil4" d="M-85.05 164.4 c -1.2,0 -1.8,-0.9 -2.1,-2.4 0.3,-0.6 0.9,-1.5 2.1,-2.1 l1.5 0 c 0,0.3 1.8,1.8 0.9,3 l-2.4 1.5z"/>
  <path class="fil3" d="M87.45 164.4 c -0.3,-1.5 -1.2,-1.8 -1.8,-3 0.9,-1.5 4.8,-1.5 6.3,-0.3 -0.6,1.5 -2.4,3.3 -4.5,3.3z"/>
  <path class="fil4" d="M-92.55 161.7 l-0.9 -0.6 0.3 -2.1 c 0.9,-1.8 3.6,-0.3 5.4,-0.9 l0 0.9 c -1.5,0.9 -3.3,1.5 -4.8,2.7z"/>
  <path class="fil3" d="M91.05 157.2 c -1.5,-0.9 -4.5,0.9 -5.1,-0.9 1.8,-2.4 3.9,-3.9 6.0,-6.6 3.3,-2.4 6.6,2.7 9.9,0.9 l-4.8 5.7 c -1.2,1.5 -3.3,0.9 -5.7,0.9 l-0.3 0z"/>
  <path class="fil3" d="M-99.75 157.2 l-7.8 -6.6 0.3 -1.2 11.7 6.9 c -0.3,1.5 -2.4,0.3 -3.6,0.9 l-0.6 0z"/>
  <path class="fil3" d="M-87.75 156.3 c -11.4,-2.4 -19.8,-9 -26.7,-18.3 -2.4,-4.2 -6.6,-10.5 -4.5,-15.3 3.0,0 6.3,0.6 9.3,2.1 11.4,5.7 21,14.1 23.7,27.6 l-0.9 0 c -3.9,-1.8 -1.2,-7.2 -3.0,-9.9 -2.7,0 0,3.9 -1.8,4.8 -1.8,-0.6 -3.6,-2.1 -3.6,-4.8 -0.3,-1.8 0.9,-5.4 -1.2,-6.6 -1.5,1.2 -0.9,3.9 -0.9,5.4 -2.4,1.2 -3.0,-1.2 -4.5,-2.7 -0.3,-2.4 1.2,-6.3 -0.9,-8.1 -1.8,1.5 -0.3,3.9 -0.9,5.4 l-0.9 0.3 c -1.5,-0.6 -1.8,-0.9 -3.3,-2.7 -0.3,-2.1 1.5,-5.1 -0.9,-6.6 0,0.3 -1.5,1.5 -1.2,3 -1.2,0.9 -1.8,-1.5 -3.6,-1.8 l-0.9 0.9 c 0.9,1.5 2.7,1.5 3.3,3.9 -0.6,1.5 -2.4,0 -3.3,1.5 2.7,0.9 8.1,0 9.0,4.5 -0.9,1.2 -3.3,-0.9 -4.5,1.2 l10.8 3.3 c -0.6,1.8 -2.7,0 -3.9,0.9 l-0.6 1.5 c 3.3,0.9 8.4,-1.5 10.5,3 0,0.9 -1.5,1.8 -2.1,1.8 2.7,0.9 7.2,0.9 8.4,4.5 l-0.9 1.2z"/>
  <path class="fil3" d="M83.85 152.4 c 0,-4.2 0,-10.8 4.8,-12.3 1.8,0.9 1.8,3.6 1.8,6 -1.5,2.7 -3.3,4.5 -6.3,6 l-0.3 0.3z"/>
  <path class="fil3" d="M-82.35 150.6 c -1.2,-2.1 0,-3.9 0.9,-5.4 l0.6 -0.9 c 0,-0.6 1.2,-0.9 0.3,-2.4 -1.2,0 -1.2,1.5 -3.0,1.8 -1.8,-1.8 0,-5.7 1.5,-7.8 0,-0.9 0.9,-0.6 1.2,-2.1 l-0.6 -0.6 c -0.9,0.3 -1.2,1.8 -2.4,2.4 l-1.2 -0.3 c -2.1,-4.8 2.7,-7.5 3.0,-11.1 -1.5,0 -1.5,2.4 -3.9,3 -0.9,-2.1 -1.2,-4.5 -0.3,-6.6 0.9,-0.6 1.8,-1.2 2.4,-3 l-0.6 -0.6 c -0.6,0.6 -1.8,0.6 -2.7,1.5 -1.5,-0.9 0,-3.9 -2.1,-4.8 -1.5,0.6 -0.3,3 -0.6,4.8 l-2.7 0 c 0,1.5 1.5,2.1 3.0,3.3 0.9,0.9 0.6,3.3 0.9,5.4 -1.2,0.9 -2.1,-1.2 -3.9,-1.5 l0 1.8 c 3.3,1.5 6.3,5.4 4.5,8.4 l-6.6 -3 c -2.1,-7.8 -0.9,-16.2 3.0,-24.6 l1.8 0 c 10.2,8.7 12,24.6 9.9,36.9 -1.5,1.5 -0.6,4.2 -2.4,5.4z"/>
  <path class="fil3" d="M99.15 148.8 c -0.9,-0.3 -2.1,-0.9 -3.6,-1.5 1.5,-1.2 4.8,0 6.9,-0.6 l0.9 -0.9 c -0.9,-2.1 -4.2,0.3 -5.1,-2.1 1.5,-3 6.9,-1.2 9.3,-3 l-0.3 -0.9 c -0.6,-0.9 -1.5,0 -3.0,-0.6 l0 -1.2 c 1.5,-2.4 4.8,-1.5 6.3,-2.7 l-0.9 -1.5 c 0,-1.8 2.4,-1.8 3.3,-4.2 l-0.6 -1.2 c -1.5,0 -2.7,2.1 -3.9,3.9 -1.8,0 -0.6,-1.8 -1.5,-2.7 l-1.2 0 c -0.9,2.4 0.3,5.7 -3.3,6.9 -1.2,-0.3 0,-2.1 -0.6,-3.6 l-0.9 -0.6 c -1.8,2.7 0,8.4 -4.8,10.2 -0.6,-1.5 0.6,-2.7 0,-4.8 l-1.8 0 c -0.6,2.1 0,3.6 -1.2,5.7 -0.6,-2.1 -1.2,-4.5 0,-7.2 6.0,-6.6 14.7,-9.3 23.4,-10.5 l-5.7 12 c -1.2,1.2 0,2.4 -1.2,3.6 -2.1,3 -5.4,6 -9.9,7.5 l-0.6 0z"/>
  <path class="fil3" d="M-86.55 143.7 l-4.5 -7.2 c 3.0,1.2 5.1,3.9 4.8,6.9 l-0.3 0.3z"/>
  <path class="fil3" d="M85.95 139.8 l-0.3 -1.2 c 0.9,-0.9 2.1,-1.5 3.3,-2.7 0.9,1.8 -2.7,1.8 -3.0,3.9z"/>
  <path class="fil3" d="M82.65 135.6 c -1.8,-0.9 -2.4,-3.3 -5.1,-3.3 -1.8,-1.5 0.6,-3.9 0,-5.4 l1.8 -1.2 c 3.3,1.5 4.5,5.7 3.9,9.3 l-0.6 0.6z"/>
  <path class="fil3" d="M85.65 135.6 c -0.3,-2.7 1.5,-5.1 3.9,-6.6 0.3,-0.6 1.5,-0.6 1.8,-1.5 l-0.9 -0.9 c -0.9,0.3 -1.5,0.9 -3.0,1.5 l-0.9 -0.9 c 0,-2.4 1.5,-4.8 3.9,-6.6 l-2.1 -1.2 c -0.9,-1.8 0.3,-3.3 -0.3,-5.1 l-1.5 0 c -0.9,1.5 0,3.3 -1.2,4.2 -0.6,-0.3 -1.5,-0.9 -2.1,-1.8 l4.8 -6.3 c 3.3,7.2 5.1,16.2 3.3,23.4 -1.8,-0.3 -3.0,0.9 -5.1,1.8 l-0.6 0z"/>
  <path class="fil4" d="M127.65 129.9 l-1.5 -0.9 -0.3 -1.8 c 1.2,0.3 2.4,0.6 2.7,2.4 l-0.9 0.3z"/>
  <path class="fil4" d="M-124.65 128.1 l-0.9 -0.3 c -0.6,-0.6 -0.6,-1.8 0,-2.7 0.9,0 1.5,-0.9 2.4,-0.9 0.9,0.6 1.5,1.8 1.2,3 -0.3,0 -1.8,1.2 -2.7,0.9z"/>
  <path class="fil3" d="M83.85 127.8 l-4.5 -4.5 c 0,-1.5 1.2,-3 3.0,-4.2 3.0,1.2 3.6,5.1 2.4,8.4 l-0.9 0.3z"/>
  <path class="fil3" d="M-137.85 125.1 c -7.8,0 -15.9,-2.4 -23.4,-6.6 -2.7,-3.3 -8.1,-5.1 -8.4,-10.5 8.4,-4.8 18.9,-3.9 28.5,-1.2 l8.1 9.9 0 0.9 c -1.8,0 -3.3,-0.9 -4.8,-0.9 l-5.1 -8.1 c -1.2,1.8 0.9,3.6 1.2,5.7 -0.6,0.9 -3.3,0 -4.2,-0.9 l-3.9 -6.6 -1.5 0 c -0.3,1.5 0.9,3 1.5,5.1 -0.6,1.5 -3.3,0.3 -4.5,-0.9 -1.2,-1.2 -1.2,-3 -2.1,-4.5 -0.6,0 -2.1,-1.2 -2.4,0 -0.6,0.9 1.8,2.1 0.3,3.3 -0.9,0 -1.8,0 -3.3,0 l-0.3 1.5 c 0.9,0 1.8,0.9 3.3,1.2 0,1.5 -2.4,1.5 -3.0,3.6 l0.9 0.6 c 2.4,-1.8 7.8,-5.4 10.2,-1.5 -1.5,1.8 -4.2,2.4 -4.8,4.2 l1.2 0.9 6.9 -4.2 c 1.8,-0.3 4.2,0.6 5.1,1.5 -0.9,1.8 -3.6,1.8 -4.8,4.8 4.2,0 7.8,-5.7 12.9,-3 l0 1.2 c -0.6,0.6 -2.1,0.9 -2.7,1.8 l0 0.9 c 3.0,0.9 6.9,-4.2 10.8,-1.5 l-0.3 1.5 c -3.6,1.5 -7.5,1.8 -11.4,1.8z"/>
  <path class="fil3" d="M144.75 123.3 c -1.2,-0.9 -2.4,0 -3.9,-0.9 -0.3,-1.8 -2.1,-1.2 -2.7,-3 2.7,-1.2 3.9,3 7.2,2.1 0,-2.1 -2.4,-2.1 -3.6,-3.9 2.7,-3.3 6.0,2.4 9.9,1.8 l0 -1.8 c -1.5,-0.6 -2.4,-0.9 -3.0,-2.4 3.3,-1.8 6.0,-0.3 9.6,0 l0 -1.8 c 0,-0.9 2.4,-0.6 2.7,-2.1 -0.6,-2.4 -2.7,0 -4.5,-0.3 -0.9,-1.2 0.9,-2.1 0,-3 l-1.5 0.3 c -0.3,1.2 -1.2,2.7 -2.4,3.9 -1.5,0.6 -3.3,1.2 -5.1,1.2 0,-1.2 1.2,-2.4 1.8,-3.9 l-0.6 -0.9 c -2.4,1.8 -2.7,5.7 -6.9,6.6 l-0.9 -0.3 c -0.3,-1.5 1.2,-2.4 2.1,-4.5 l-1.2 -0.6 -4.5 5.4 c -0.6,-0.6 0.9,-1.8 0.6,-3 2.7,-3.9 8.4,-6 14.1,-6 1.8,0 2.1,0.6 3.3,1.2 3.0,-1.2 6.6,0 10.2,2.1 -0.6,1.8 -2.7,2.7 -4.5,4.8 -1.8,1.8 -4.2,4.2 -7.2,5.7 l-9 3.3z"/>
  <path class="fil4" d="M-115.65 120.6 l-0.6 -0.3 c -0.3,-0.9 -0.3,-1.8 0,-2.7 0.6,-0.6 1.8,-0.9 2.7,-0.9 0.3,0.9 0.9,1.8 0.9,2.7 -0.6,0 -0.9,0.6 -2.4,1.2 l-0.6 0z"/>
  <path class="fil3" d="M-126.15 119.1 c -10.5,-6.6 -18.6,-19.8 -19.5,-33 l0.6 -8.7 c 7.2,0.9 12.9,6.9 16.5,12.9 l6 15.3 -1.2 0.3 c -1.2,1.2 -0.3,3.9 -2.7,4.5 -3.6,-3.6 0.3,-8.7 0,-12.9 l-0.9 0 c -1.2,0.9 -0.6,3.3 -2.1,5.1 l-0.9 -0.6 c -4.2,-3.6 0,-7.5 0,-11.7 l-1.8 0 c -0.9,0.9 -0.9,3 -2.4,4.2 -3.0,-2.4 -0.6,-6.6 -0.3,-9.9 l-0.9 -0.3 c -1.8,0 -0.9,2.4 -2.7,2.7 -0.9,-0.9 -0.9,-3.3 -3.3,-4.2 l-0.6 1.5 c 0,1.2 1.2,2.7 2.1,4.2 -0.6,2.4 -3.9,-0.9 -4.2,1.5 1.2,0.9 3.6,0.9 5.1,2.1 0.9,0.9 2.7,2.4 2.7,3.9 -1.8,1.5 -4.5,-1.5 -6.0,0.6 3.9,1.8 9.9,1.8 10.5,7.5 -2.1,0 -4.2,-1.2 -6.3,-0.3 l0.6 0.9 c 3.3,1.2 10.5,1.5 9.3,7.2 -0.9,0.6 -2.7,-2.1 -4.2,-0.6 l0 1.2 c 3.0,0.9 8.1,2.1 7.8,6.6 l-1.2 0z"/>
  <path class="fil3" d="M-122.25 117.6 c -3.3,-1.8 -1.2,-6.3 -0.3,-9.6 1.5,1.5 1.2,6.9 0.3,9.6z"/>
  <path class="fil4" d="M113.25 117 c -0.3,0 -1.8,0 -2.4,-1.2 l0.6 -0.9 c 0.6,0.3 0.9,0.9 1.8,2.1z"/>
  <path class="fil3" d="M-119.25 116.7 l0 -2.7 c 0.9,-1.2 3.0,-1.8 4.8,-2.7 0,2.4 -2.1,3.9 -4.5,5.4 l-0.3 0z"/>
  <path class="fil3" d="M120.75 116.1 c -0.6,-2.7 -2.7,-8.1 -0.6,-12 l1.8 -0.9 2.4 0.9 c 0.6,1.2 2.1,3.3 0.9,5.4 l-4.5 6.6z"/>
  <path class="fil3" d="M-117.75 110.4 c -0.6,-1.8 0.3,-4.5 2.1,-6.3 1.5,0 2.1,-1.5 4.5,-2.4 l0 -1.5 c -1.5,0 -3.3,1.8 -5.1,1.2 0,-2.1 0.6,-4.8 2.7,-6.3 1.8,-0.6 3.6,-1.2 4.5,-2.7 l-0.6 -1.2 c -1.5,0 -2.1,1.5 -3.9,2.1 -2.1,0 0,-2.1 -0.9,-3 0.9,-2.7 3.3,-3.3 5.4,-4.8 l0 -1.8 c -1.5,-0.9 -1.8,2.1 -3.6,0.9 0,-1.8 0,-3.3 0,-5.1 l-0.9 -0.3 c -0.9,1.2 -1.5,2.7 -2.1,4.5 -1.8,-0.6 -1.8,-2.1 -3.6,-3 0,-2.7 3.3,-5.1 5.7,-7.8 l0.9 0 c 7.2,10.2 4.8,22.8 0.9,34.2 0,0.9 -0.9,1.8 -1.5,2.4 -0.9,0 -2.7,0 -4.2,0.9 l-0.3 0z"/>
  <path class="fil3" d="M134.25 107.1 c -0.9,-0.3 -1.8,-1.5 -3.6,-0.6 1.8,-1.2 4.5,-0.9 5.7,-3.3 -1.2,-1.2 -3.6,2.1 -4.8,-0.3 l0.9 -2.1 c 1.2,-1.8 3.9,-1.8 6.3,-2.7 0,-2.4 -2.4,0 -3.6,-1.5 -0.9,-3 3.0,-3.9 5.1,-6.3 -3.0,-0.9 0.3,-4.2 0.9,-6 -2.1,-1.5 -2.4,1.5 -3.3,2.7 -1.2,0.9 -2.1,-0.3 -3.0,-0.3 0,2.7 0.3,6 -1.5,9 -1.8,-0.9 -1.8,-3.3 -2.4,-4.8 l-1.5 0 1.5 9.3 -1.5 1.5 c -1.2,-0.6 -1.5,-3.3 -2.4,-5.1 l-1.2 0.9 c 0,1.8 1.2,3.9 1.2,6.6 -2.7,-2.1 -2.7,-6.6 -1.2,-9.6 1.5,-6.6 8.4,-8.4 12.9,-13.2 0.3,-0.9 1.8,0 2.7,-0.6 2.1,6.6 0.3,13.8 -1.8,20.7 -0.9,0 -0.9,1.5 -1.5,2.7 -1.8,0 -2.4,1.8 -3.9,2.7 l0 0.3z"/>
  <path class="fil3" d="M-119.25 106.5 c -1.5,-0.3 -0.6,-1.2 -1.2,-2.4 l1.2 2.4z"/>
  <path class="fil3" d="M112.95 103.8 c -0.9,-0.6 -1.5,-1.2 -3.0,-2.1 0.6,-1.2 3.9,0 4.5,1.5 l-1.5 0.6z"/>
  <path class="fil3" d="M118.05 103.2 c 0,-2.1 1.8,-3.3 2.7,-5.7 l-0.3 -0.9 c -0.6,0 -1.2,1.8 -2.7,2.4 -2.4,-0.9 0.3,-3.3 0,-5.7 l-1.2 0 c -1.8,-1.2 -1.8,-4.8 -0.3,-7.2 0.3,-0.6 1.8,-0.9 3.3,-0.3 0.3,0.9 0,2.1 0.3,3 l1.8 1.5 c 0.9,3 0.3,6.3 0.3,9.6 -1.2,1.2 -2.4,1.8 -3.9,3.3z"/>
  <path class="fil3" d="M-119.25 101.1 c -3.0,-3 -7.2,-8.1 -4.2,-13.5 l2.7 -5.7 c 2.4,1.8 5.7,6 4.2,10.2 l-1.8 0 c 0,-1.2 -0.9,-1.8 -2.1,-2.7 -1.2,0.9 1.2,4.2 2.7,5.4 0.9,1.8 0,3.6 -0.6,6 l-0.9 0.3z"/>
  <path class="fil3" d="M114.15 100.8 c -1.8,-1.5 -4.5,-1.5 -6.6,-2.4 0,-0.9 0,-2.4 0,-3.3 2.1,-2.4 4.8,0.6 6.9,1.5 0.9,1.5 0.9,2.4 0.9,3.9 l-1.2 0.3z"/>
  <path class="fil3" d="M112.35 93.9 c -1.5,-0.6 -2.7,-1.8 -4.8,-2.7 l3.9 -15.3 c 1.8,1.5 3.3,3.9 5.7,6 0,0.9 -0.6,1.8 -1.8,2.7 -2.4,0 0,-3.9 -3.0,-4.2 -0.9,1.5 0.6,2.7 0,4.8 l-2.4 0.6 -0.3 0.9 c 2.4,1.2 5.7,4.5 3.6,7.2 l-0.9 0z"/>
  <path class="fil4" d="M-150.75 80.1 c -0.6,-0.6 -2.4,-0.9 -1.5,-2.7 l1.8 -0.9 1.5 0.6 c 0.6,0.3 0,1.2 -0.6,2.4 l-1.2 0.6z"/>
  <path class="fil4" d="M154.65 80.1 l-1.2 -0.6 c 0,-1.5 2.1,-0.3 2.1,0.3 l-0.9 0.3z"/>
  <path class="fil4" d="M-140.25 76.5 l-1.5 -1.5 c 0,-0.6 1.5,-0.9 2.4,-1.5 0.6,0 0.6,0.9 1.5,1.5 -0.6,1.5 -1.5,1.5 -2.4,1.5z"/>
  <path class="fil3" d="M-156.75 73.8 c -0.9,0 -1.8,-0.3 -2.7,-1.2 1.5,-1.2 6.3,-2.4 8.1,0.3 -0.9,1.8 -3.6,0 -4.8,0.9 l-0.6 0z"/>
  <path class="fil4" d="M135.75 73.5 l-0.6 -0.6 c 0,-0.9 1.5,-0.6 2.1,0 l-1.5 0.6z"/>
  <path class="fil3" d="M-161.85 71.999 l-16.8 -11.1 c -3.3,-4.5 -7.5,-9.3 -8.4,-15.3 8.4,-1.2 17.4,1.8 24,7.2 4.5,2.7 6.0,9 7.2,14.1 -2.1,-0.9 -3.6,-2.4 -3.6,-5.1 0,-1.8 0,-4.5 -1.5,-5.7 l-0.9 0.3 c -0.6,1.8 0.6,3.6 0,5.4 -1.5,0 -3.0,-1.5 -3.9,-3.3 -0.9,-2.1 0.9,-6 -2.1,-7.5 -2.1,0.3 -0.6,3.6 -1.2,5.4 -1.8,0 -3.3,-0.9 -4.2,-3 0,-1.2 0,-3 -0.9,-5.1 l-1.2 -0.3 c -0.3,0.9 0,2.4 -0.3,3.3 -1.2,0.9 -2.4,0 -3.3,-1.5 l-2.1 0 c -0.9,1.2 1.5,2.4 3.0,3.6 -0.6,0.6 -2.4,1.2 -3.0,3 l0.6 0.6 c 1.8,0.3 3.9,-0.6 6.3,-0.6 0.3,0.6 1.8,1.5 3.3,2.1 0,2.1 -3.0,0.6 -4.5,2.4 l-0.3 0.9 c 3.0,1.8 9.0,-2.7 12,1.8 -0.3,3 -4.8,0 -6.0,3 2.7,2.7 8.4,-2.1 12,0.9 l0.6 0.9 c -0.9,1.8 -3.9,0.3 -4.8,3 l0 0.6z"/>
  <path class="fil3" d="M-148.35 71.7 c -8.7,-8.7 -10.5,-21.3 -10.2,-33.3 l4.5 -12.3 c 2.7,0.9 3.6,3.6 6.6,5.7 5.4,7.8 5.1,17.1 5.1,26.4 -2.4,0.3 -1.8,3.6 -4.2,3.9 -1.8,-1.5 0,-4.8 0.9,-7.5 0.9,-0.9 2.4,-1.8 1.5,-3.6 -1.5,0 -1.5,2.4 -3.9,2.4 -1.8,-3.6 0.9,-6.6 3.0,-9.9 l-0.6 -0.9 c -1.8,0 -1.8,2.1 -3.3,2.7 -1.2,-0.9 -1.8,-4.8 0,-6 0.6,-0.3 0.9,-1.8 1.5,-3 0,-1.5 -2.4,0 -3.0,0.9 -0.3,-0.9 -0.9,-2.4 -1.2,-3.6 l-1.2 -0.6 c -2.1,0.6 0,3.3 -0.9,4.5 -0.6,0.3 -2.1,-1.2 -3.0,-0.3 0.9,3.3 6.0,4.5 4.5,8.7 -1.5,0 -2.7,-2.4 -4.5,-1.5 0,1.8 2.7,2.7 3.9,4.5 1.5,0.9 2.1,2.7 2.1,4.8 -1.5,0.3 -3.3,-0.9 -5.1,-1.5 l-0.3 0.9 c 1.8,3 8.1,4.2 7.2,9.6 -1.2,0 -2.4,0 -4.2,-0.9 0,3.6 7.5,4.2 5.1,9.3 l-0.3 0.6z"/>
  <path class="fil3" d="M-142.35 71.4 l0.6 -2.1 6.6 -3.3 0 -1.5 c -0.6,0 -1.5,0 -2.4,0 l-0.9 -0.9 c 0.6,-1.8 1.5,-3 3.3,-3.6 2.1,-0.6 3.3,0 5.7,-1.5 l-0.6 -1.2 c -1.2,-0.9 -3.0,1.2 -4.5,-0.3 0.6,-0.9 0.3,-2.4 1.5,-3.3 2.7,-2.1 6.6,-0.9 8.1,-3.3 -1.2,-1.5 -3.0,-0.6 -4.8,-0.6 l0.6 -2.7 c 1.2,-1.8 4.5,-1.8 6.9,-2.7 -1.8,9.3 -7.8,20.1 -16.2,24.9 -0.9,0.6 -1.8,1.5 -3.6,2.1 l-0.3 0z"/>
  <path class="fil3" d="M-145.05 69.3 c -2.1,-2.1 0,-4.8 1.5,-6.6 1.2,1.5 -0.9,4.5 -1.5,6.6z"/>
  <path class="fil3" d="M164.55 69.3 c 0,-0.9 -1.8,-0.9 -2.1,-2.1 2.1,-0.3 3.9,0.3 6.0,0 l-0.3 -1.2 c -0.9,-0.6 -3.3,0 -3.6,-2.4 3.3,-2.4 6.6,0 10.2,-0.6 0,-1.8 -4.2,-1.2 -4.5,-3 1.8,-1.8 5.4,-2.1 8.1,-2.1 1.8,-1.8 -1.8,-1.5 -0.6,-3.3 0.9,-0.6 2.4,-0.9 3.0,-2.4 -1.5,-0.6 -3.3,1.8 -5.1,0.9 l0.6 -2.7 c 2.4,-0.6 5.1,-1.5 7.8,-0.6 -1.2,0.6 0,1.8 -0.9,3.3 -0.9,0.3 -1.2,0.6 -1.8,1.8 l0 1.5 c -1.2,0.9 -2.1,3.9 -3.9,4.8 -0.9,0.6 0,1.8 -0.9,3 -3.6,2.4 -6.9,5.1 -12,5.1z"/>
  <path class="fil3" d="M162.75 62.7 c -0.9,-2.1 0.6,-4.2 -0.9,-6.3 2.7,-3.6 6.9,-3.6 11.1,-5.4 1.2,2.1 0,4.5 -1.8,6.9 -0.6,0 -0.9,0.9 -2.4,0.6 -0.9,-0.6 0,-2.4 -0.3,-4.5 l-1.2 0 c -1.2,2.4 -0.3,6.9 -4.2,8.1 l-0.3 0.6z"/>
  <path class="fil3" d="M-139.95 62.1 c 0,-1.5 -0.3,-3.9 0.6,-5.7 0.6,2.1 0.6,3.9 -0.6,5.4 l0 0.3z"/>
  <path class="fil3" d="M130.95 61.8 c -2.4,-2.7 -6.6,-3.6 -6.6,-8.7 l8.1 1.5 c 0.3,0.9 1.2,1.5 0.9,3.3 -1.8,0.6 -3.6,-0.9 -5.4,0 0.9,2.1 4.5,1.5 6.3,2.7 -0.6,-0.3 -1.8,0.3 -3.3,1.2z"/>
  <path class="fil3" d="M137.85 57.9 c -1.2,-1.5 0.3,-3 0.3,-4.8 -1.8,-0.3 -1.5,1.8 -3.0,2.4 l-0.9 -0.6 c -1.5,-2.1 0.6,-5.1 0,-7.5 -0.6,-1.2 -0.6,0.6 -1.2,0.9 l-2.1 0.6 c -1.2,-2.1 -2.4,-3.9 -2.1,-6.9 l-1.2 -0.3 c -0.6,0 -1.2,-1.8 -1.8,-2.7 l-1.5 0 c 0,1.5 0.9,2.7 1.8,4.2 0,1.2 -1.8,1.2 -2.7,1.5 l6.3 6.6 c -2.1,0.3 -3.9,-0.6 -6.3,-0.3 l-0.6 -15.6 c 6.6,3.9 12.9,8.1 16.8,15.6 0,1.8 -0.6,3.6 -0.6,5.4 l-1.2 1.5z"/>
  <path class="fil3" d="M150.15 57.9 l-0.9 -0.6 c 0.9,-0.9 3.3,-3.6 6.0,-3.6 -0.9,0.3 -1.2,1.8 -2.4,3.3 -0.9,0.3 -1.8,-0.6 -2.7,0.9z"/>
  <path class="fil3" d="M145.95 57 c -2.4,-1.5 -4.8,-6.3 -4.2,-9.9 l8.4 -15.6 c 0.9,-1.2 1.8,-0.3 3.6,-0.9 l3.6 12.6 c 0,2.4 -1.8,4.8 -0.6,7.8 l-6.6 2.7 0 -2.4 c 0,-2.4 5.1,-2.4 5.4,-5.4 -0.9,-0.3 -2.1,1.5 -3.9,1.2 -1.5,-0.9 0,-2.4 0.3,-4.5 0.6,-0.6 2.1,-0.9 2.7,-2.7 l-0.6 -0.6 -0.6 0.3 c -1.8,-1.2 0,-4.2 -0.6,-6 l-0.9 -0.6 c -0.9,1.5 -0.9,3.3 -1.8,4.8 l-2.7 -0.3 c -0.3,2.7 4.2,6 1.2,8.7 -1.8,0.6 -1.5,-1.5 -3.9,-2.7 l-0.3 1.5 c 0.9,1.8 2.4,3 3.3,5.4 0.6,0.6 0,1.8 -0.6,2.7 -1.8,-0.3 -1.8,-2.1 -3.3,-3.3 l-1.5 0 c -0.9,2.4 4.5,3.6 3.6,7.2z"/>
  <path class="fil3" d="M-135.75 56.1 c -3.0,-2.1 -3.6,-7.2 -3.6,-10.2 3.9,-6.3 9.3,-12.9 17.4,-14.4 0.9,3.3 0.9,6.9 0.3,11.1 -1.5,0 -3.0,0 -4.5,-0.9 0.6,-1.2 1.5,-2.1 1.5,-3.6 l-0.9 -0.6 c -0.9,0.9 -1.5,1.8 -2.4,3 -1.5,0 -1.2,-2.7 -3.0,-2.7 -1.2,2.4 3.0,8.1 -1.8,10.2 -0.3,-0.9 -0.3,-2.7 -1.8,-4.5 l-1.2 1.5 c 0.6,2.1 0.6,3.9 1.5,6.3 0,1.8 -2.1,2.4 -1.5,4.8z"/>
  <path class="fil4" d="M-159.45 27 l-0.9 -0.3 c -0.6,-0.6 -0.6,-1.2 0,-2.4 0.9,-0.9 2.4,0 2.7,1.2 0,0.9 -1.2,1.2 -1.8,1.5z"/>
  <path class="fil4" d="M-149.55 26.7 c -0.6,0 -1.2,-1.2 -0.6,-2.1 0.6,0 1.5,-1.2 2.7,-0.3 l0 2.1 -2.1 0.3z"/>
  <polygon class="fil3" points="143.55,25.5 145.95,24.6 "/>
  <path class="fil4" d="M163.35 25.5 l-1.2 -0.9 c 0.6,-0.3 1.8,0 2.7,-0.3 1.2,0.6 -0.9,1.2 -1.5,1.2z"/>
  <path class="fil3" d="M-159.45 21.6 l-15.6 -8.7 c -4.8,-3.6 -7.2,-9.6 -11.1,-14.4 -1.5,-3.9 -2.7,-7.2 -1.8,-11.7 8.1,-0.6 16.5,5.4 21.9,11.1 0.3,0.3 1.2,1.5 1.8,2.4 l-1.5 0.9 c -0.9,1.2 -0.3,3.6 -0.9,5.1 l-0.3 0.6 c -2.1,-0.6 -3.0,-3.3 -3.0,-4.5 0.3,-2.4 0.6,-4.8 -0.3,-7.5 l-1.5 0 c -1.5,1.8 0,3.6 -0.9,5.4 l-2.1 -0.6 c -2.4,-3 0.6,-7.2 -2.7,-9.3 -1.5,0 0,3 -2.1,3.9 0,-1.2 -1.8,-1.2 -2.4,-2.1 l-0.9 0.3 c -0.6,1.8 0.9,1.8 1.8,3.3 -0.3,1.2 -1.8,0.9 -3.0,1.8 l0 0.9 c 3.0,1.2 7.2,0 9.0,3.9 -0.6,1.5 -3.6,0 -5.4,0.9 l0 1.2 c 2.7,1.2 9.0,-0.6 11.4,4.2 -0.9,1.8 -4.2,-0.6 -5.7,1.8 0.9,2.1 5.4,0.3 8.1,0.9 0.9,0.9 2.4,1.2 3.0,3 -1.2,1.5 -3.3,-0.6 -5.1,1.8 1.2,2.4 4.8,0.6 7.5,1.5 0.9,0.6 1.8,1.2 3.3,3 l-1.5 0.9z"/>
  <path class="fil3" d="M-149.55 21 c 0,-0.3 0.6,-1.5 1.2,-2.4 1.8,-0.9 3.6,-0.6 5.7,-0.9 l0.3 -1.5 c -0.6,-0.3 -2.1,-0.3 -2.4,-2.1 0.3,-0.6 1.5,-0.9 1.8,-2.4 2.7,-0.9 6.3,0.9 8.7,-0.9 l-0.3 -0.6 c -1.2,-1.5 -3.0,-0.6 -4.8,-0.9 -0.6,-2.1 1.8,-3.3 3.9,-4.5 1.2,0 3.3,0 5.1,0 l0.6 -1.2 c -0.3,-1.8 -3.3,0 -4.2,-1.2 l1.2 -2.4 c 2.4,-1.8 5.4,0.6 7.8,-1.8 0,-2.4 -3.0,-0.3 -3.9,-2.4 0.9,-1.2 2.4,-2.4 3.3,-4.5 l-0.9 -0.9 c -0.9,0 -2.1,1.5 -3.0,2.4 l-0.9 -1.5 -2.4 0 c -0.3,2.7 0.6,6.3 -2.4,8.4 -1.8,-0.9 0.3,-4.5 -1.8,-4.8 l-4.2 11.1 c 0,-2.4 -3.6,-7.5 -0.6,-10.5 l9.6 -6.6 10.2 -2.7 c 0.6,9 -5.4,20.7 -12.9,26.7 -3.6,3.3 -8.1,6.6 -13.8,8.1 l-0.9 0z"/>
  <path class="fil3" d="M151.95 19.8 l-7.2 -9 c 0.6,-2.1 1.2,-3.6 1.5,-5.7 3.0,0.3 5.7,2.7 7.5,5.4 l-1.8 9.3z"/>
  <path class="fil3" d="M156.45 19.8 l-0.3 -9.6 c 0.6,-1.5 3.0,-4.5 6.0,-4.2 3.3,5.7 -0.3,10.5 -5.4,13.8 l-0.3 0z"/>
  <path class="fil3" d="M-153.15 19.2 c 0,-1.5 -0.6,-3.9 1.8,-5.4 0,-0.3 1.2,-0.6 2.4,-1.2 l-4.2 6.6z"/>
  <path class="fil3" d="M-155.85 18.9 c -1.2,-1.8 -2.7,-4.8 -3.0,-7.5 2.1,1.2 3.9,4.5 3.3,7.2 l-0.3 0.3z"/>
  <path class="fil3" d="M172.65 13.5 c -0.6,0 -1.5,-0.3 -2.4,-0.9 0.9,0 1.8,0 3.3,0 l-0.9 0.9z"/>
  <path class="fil3" d="M-162.15 12.9 c -1.5,-1.5 -2.7,-5.1 -1.2,-6.9 0,1.8 1.5,4.2 1.2,6.3 l0 0.6z"/>
  <path class="fil3" d="M136.35 12.9 c -3.3,-0.3 -5.7,-1.8 -7.8,-5.1 -2.4,-5.1 -4.2,-12 -5.1,-18.3 l7.5 3.3 -0.3 2.1 -2.1 0 c -0.3,-0.9 -0.9,-1.5 -2.1,-2.1 -1.2,1.8 2.4,3.9 0.9,6 1.5,0.9 5.4,1.2 6.3,4.5 0,1.5 -3.0,0 -3.0,2.1 1.8,0.6 4.2,-0.3 6.0,0.9 0.6,0.9 1.2,1.8 1.5,2.4 0,1.8 -1.8,0.6 -3.3,1.8 0,1.8 3.0,0 3.0,2.1 l-1.5 0.3z"/>
  <path class="fil3" d="M175.35 12.3 l-0.3 -1.2 c -0.9,-1.5 -3.3,0 -4.5,-1.5 0.6,-1.8 2.4,-2.7 4.5,-2.7 1.2,0 3.3,0.3 4.2,-0.9 l0 -0.9 c -0.9,-0.6 -1.8,0 -3.0,-0.3 l0 -2.1 c 2.1,-0.9 3.0,-2.1 5.7,-2.7 l-0.6 -1.5 c 0,-1.8 1.8,-3 2.7,-4.5 -1.8,-1.2 -2.4,1.5 -3.9,1.8 l-0.9 -1.8 -0.9 0 c -1.5,2.7 0,6.3 -3.3,8.4 l-1.2 0 c 0.3,-1.5 -0.3,-2.1 -0.9,-3.6 l-0.3 -0.3 c -2.1,2.1 0.3,7.2 -3.9,9.3 -0.6,-1.8 0.6,-3.9 -0.9,-5.1 l-0.9 0.6 c -1.5,1.2 0.6,3.9 -1.5,4.8 -0.9,-2.4 0,-5.4 0.9,-7.5 5.4,-5.4 12.9,-9.3 20.4,-11.1 l-2.4 9.3 c -2.4,5.1 -3.0,11.7 -9.0,13.5z"/>
  <path class="fil3" d="M-152.85 11.4 c -0.3,-0.9 -0.3,-2.7 0.6,-4.2 l4.8 -4.8 -0.9 -1.2 c -1.8,0 -2.1,2.7 -4.5,2.4 -0.9,-2.4 0,-5.4 2.7,-6.9 0.6,-1.2 3.0,-2.1 2.7,-4.2 -0.9,-0.3 -2.1,0 -3.0,0.6 l-0.9 1.5 c -1.8,0 -1.5,-2.4 -1.8,-4.2 0.9,-2.4 3.3,-3.3 4.8,-5.7 -0.3,-0.9 -2.4,-0.6 -3.0,0.3 -2.7,0 0,-3.6 -2.4,-5.1 l-0.6 0.3 c -1.2,1.2 -1.2,3 -1.2,4.8 -0.9,0 -1.5,-1.2 -3.0,-0.9 l3 9.9 c -1.2,0 -1.5,-1.2 -3.3,-1.8 l-1.5 0.3 c 1.8,3 6.3,5.7 4.8,10.8 -1.5,0 -2.4,-2.4 -4.8,-3.3 l-0.9 0.6 c 1.8,3.9 6.9,5.1 5.7,10.2 -1.5,0 -2.4,-2.7 -4.8,-2.7 -2.7,-10.2 -2.1,-22.8 4.5,-32.4 0.3,-1.2 1.5,-1.5 2.7,-2.1 8.4,8.7 7.5,21.9 6.6,32.7 -0.6,0.9 -0.9,2.4 -1.8,3 -1.8,0 -2.4,1.5 -4.5,2.1z"/>
  <path class="fil3" d="M-145.05 10.8 c -0.6,-0.3 0.9,-3.6 0.3,-0.3 l-0.3 0.3z"/>
  <path class="fil3" d="M142.35 8.1 c 0,-1.8 0,-3 0,-4.8 1.2,0.3 1.5,2.7 0.6,4.5 l-0.6 0.3z"/>
  <path class="fil3" d="M139.65 6.3 l-1.5 -0.6 c -1.8,-2.4 1.5,-6.3 -1.5,-8.1 -0.3,0.6 -0.9,2.4 -0.9,3.6 -2.7,0 -4.2,-4.2 -3.0,-6.9 l1.5 0 c 2.1,2.4 4.8,2.7 6.9,5.4 l0.9 1.2 c -1.5,1.5 -0.9,3.9 -2.4,5.4z"/>
  <path class="fil3" d="M151.05 5.1 c -0.9,-1.2 -1.8,-1.8 -3.3,-2.7 -3.0,-8.4 1.8,-17.4 6.9,-25.2 4.2,4.2 5.1,9.6 7.2,15 -1.2,0.6 -3.0,3.6 -5.7,3 0,-1.8 -0.9,-3.3 0.6,-5.7 0.6,0 2.1,-0.6 1.5,-2.1 l-1.8 -0.3 c -0.3,-0.6 0,-2.1 -0.3,-3 l-1.2 -0.9 c -1.2,0.6 -0.6,2.1 -0.9,3.3 l-2.1 0.6 c 0.6,2.4 2.7,4.2 2.1,7.5 -2.1,1.2 -1.5,-1.8 -3.9,-1.2 0,1.5 1.5,3.3 3.3,4.5 0.9,0.3 0.3,1.8 0.6,3 l-0.6 0.9 c -1.8,0 -1.8,-2.1 -4.2,-2.4 l-0.6 0.3 c 0,2.1 2.4,2.7 3.3,4.2 l-0.9 1.2z"/>
  <path class="fil3" d="M158.25 4.5 c 0.6,0 0.9,-2.1 2.1,-1.2 0,0.6 -1.2,1.2 -2.1,1.2z"/>
  <path class="fil3" d="M156.15 2.69882 c 0,-0.9 0,-2.1 0,-3.3 1.2,-1.5 2.1,-3.6 4.8,-4.5 2.1,0.9 0.9,3.9 0.6,5.7 -1.8,-0.9 -2.7,1.8 -5.1,2.1 l-0.3 0z"/>
  <path class="fil4" d="M-148.65 -25.5 l-0.9 -0.6 0.6 -1.2 1.5 0 c 0.9,0.3 0,1.5 -0.6,1.8 l-0.6 0z"/>
  <polygon class="fil4" points="-160.35,-25.8 -160.35,-27.3 -158.55,-27.9 -158.55,-26.1 "/>
  <path class="fil3" d="M138.75 -27 l-0.6 -0.9 c 0,-0.6 2.1,-1.8 2.4,-0.6 l-1.8 1.5z"/>
  <path class="fil3" d="M169.65 -27 l-0.9 -0.3 c 0,-0.9 1.5,-1.8 1.8,-1.2 l-0.9 1.5z"/>
  <path class="fil3" d="M164.85 -27.3 l-1.5 -0.6 c 0,-0.9 1.2,-0.3 2.1,-0.6 l-0.6 1.2z"/>
  <polygon class="fil3" points="143.55,-27.9 145.95,-28.5 "/>
  <path class="fil3" d="M-149.55 -31.5 c 1.2,-3.6 6.3,-1.2 8.4,-3.6 0,-0.9 -1.8,-1.8 -3.0,-1.8 l-0.3 -0.9 c 0.3,-1.8 2.1,-2.7 4.2,-2.7 1.5,-0.6 3.9,0.9 5.4,-0.6 l0.3 -0.6 -0.3 -0.9 c -0.9,-0.9 -2.7,0 -4.5,-0.3 0,-1.5 1.5,-2.4 2.4,-3.9 2.1,-0.9 4.8,-0.3 7.5,-0.6 l0.3 -1.2 c -0.6,-2.1 -3.6,0 -4.8,-2.1 1.8,-3.6 6.6,-2.4 9.0,-3.9 -0.6,-1.2 -1.5,-0.9 -3.0,-1.8 0,-1.8 1.5,-1.8 1.8,-3.9 l-0.9 -1.2 c -0.9,0 -0.9,1.2 -2.4,1.5 -0.9,0 -0.3,-1.5 -1.8,-1.8 l-1.5 0.3 c -0.3,2.4 0.6,6.3 -2.4,9 -1.8,-0.9 0.3,-4.8 -2.4,-5.7 -2.7,3 0,7.5 -1.8,10.8 0,0.3 -1.5,1.5 -2.7,0.6 0,-0.9 0,-1.8 0,-3.3 l-1.5 -2.1 c 1.2,-6 8.7,-9.3 14.4,-13.2 2.1,0 4.5,-1.8 7.2,-1.5 1.2,8.1 -4.2,18.3 -9.3,24.9 -4.5,3.9 -9.9,9.6 -17.4,10.5 l-0.9 0z"/>
  <path class="fil3" d="M-161.25 -31.5 c -12,-4.2 -19.2,-13.5 -24.9,-24.9 -0.9,-3.6 -2.1,-6.6 -1.8,-10.2 8.4,-0.6 15.6,5.4 21.3,11.1 0.6,0.6 2.4,1.8 2.1,3 l-1.2 0.3 c -0.9,1.5 -0.3,4.2 -0.9,6.3 l-0.3 0.6 c -3.3,-2.4 -3.3,-7.2 -2.7,-10.5 -0.3,-0.6 -0.6,-2.4 -1.8,-2.4 -2.4,0.3 -0.9,3.3 -1.2,5.1 l-1.5 0.6 c -2.1,-2.1 -1.5,-5.4 -2.1,-8.1 l-1.5 -1.2 c -0.3,0.3 -1.2,1.5 -1.8,2.7 -0.9,-0.9 -1.5,-1.8 -3.3,-2.4 l-0.6 0.9 c 0.3,1.5 1.2,1.8 2.1,3.3 0,1.5 -2.1,0.9 -2.7,2.1 1.5,2.7 7.2,0 8.4,4.5 -0.6,1.5 -3.3,0 -3.9,1.5 l-0.3 1.2 c 2.7,1.2 8.4,0 10.5,3.9 -0.3,1.5 -3.0,0 -3.9,1.5 l-0.6 0.9 c 1.5,2.4 4.8,0.6 7.2,1.5 0.9,0.6 2.4,0.9 3.0,3 0,0.9 -2.4,0.3 -2.4,2.4 1.5,1.5 4.8,0 6.6,2.1 0.9,1.2 -1.8,1.2 -1.8,1.2z"/>
  <path class="fil5" d="M157.35 -32.7 c -0.9,-1.5 0,-3 -0.6,-4.5 0.9,-2.1 3.3,-0.9 5.4,-1.5 -0.3,2.7 -2.4,3.9 -4.5,6 l-0.3 0z"/>
  <path class="fil5" d="M152.85 -33.6 c -1.8,-0.6 -2.7,-1.2 -3.6,-3.3 0.9,-1.2 2.7,-0.9 4.5,-1.2 l0.9 1.2 c 0,0.6 0.3,2.4 -0.6,3 l-1.2 0.3z"/>
  <path class="fil3" d="M-155.55 -33.9 c -1.2,-1.8 -3.0,-4.2 -3.3,-6.6 1.8,0.3 2.7,1.8 3.6,3.6 l-0.3 3.0z"/>
  <path class="fil3" d="M-152.25 -34.2 c 0,-0.9 0,-2.1 0,-3.6 0,-0.9 1.5,-1.5 2.7,-2.1 0.6,2.1 -1.8,3.6 -2.1,5.4 l-0.6 0.3z"/>
  <path class="fil3" d="M173.85 -38.7 c -0.9,-0.6 -2.7,-0.3 -4.2,-0.9 1.5,-0.9 4.5,0.3 6.0,-0.9 0,-2.1 -3.6,0 -4.5,-2.1 0,-1.8 2.4,-1.8 3.0,-4.2 -1.5,-3 0,-5.7 -1.2,-9.6 1.8,0 1.8,-1.8 3.3,-2.4 l1.2 0.6 c 0.9,2.7 0,6.6 -2.4,8.4 l0.3 1.5 c 0.9,-0.9 2.1,-0.9 3.0,-2.4 0.9,-2.4 4.8,0 5.4,-2.7 l-0.9 -2.1 c 0.3,-0.9 0.9,-1.8 1.5,-2.7 l-0.9 -0.9 c -1.2,0.9 -1.5,1.8 -3.3,2.7 0,-0.9 -0.9,-2.4 -0.9,-3.6 1.8,-0.9 4.8,-1.5 7.5,-1.8 l-1.2 7.5 -7.2 13.8 c -1.8,0.3 -2.4,1.2 -4.5,1.8z"/>
  <path class="fil3" d="M136.65 -39.9 c -0.9,-0.6 -1.8,-0.6 -3.3,-1.5 -0.6,-0.3 -0.9,-2.1 -2.7,-2.1 -3.3,-6.3 -5.7,-11.7 -5.7,-18.3 6.6,1.5 15.3,4.5 19.5,11.7 -0.9,1.5 1.8,4.2 -0.6,5.1 -0.3,-1.8 0.6,-3.6 -0.3,-5.1 -2.7,0 0,3 -1.8,4.8 l-0.9 0 c -0.6,0 -1.8,-0.6 -2.1,-2.1 -0.6,-2.4 0.3,-5.1 -0.6,-6.9 l-0.9 0.6 c -0.9,0.6 0,3 -1.5,3 -3.0,-0.9 -0.9,-6.6 -3.3,-7.5 l-1.8 0.9 c -1.8,0 -1.8,-3.3 -3.6,-1.8 0,1.8 1.2,1.8 1.8,3.9 l-1.8 0.9 c 1.2,2.7 6.6,0.6 7.8,5.1 -0.6,1.5 -1.8,0 -3.3,1.2 l-0.6 0.9 c 2.7,0.3 5.7,0 7.8,2.7 l0.3 0.3 c -0.9,1.5 -3.3,0 -4.2,1.5 l0.3 1.2 c 1.5,1.2 3.6,-0.3 5.7,0.9 -1.2,0 -2.7,0 -4.2,0.6z"/>
  <path class="fil3" d="M-163.05 -40.5 c -0.3,-1.5 -1.8,-3.9 -0.3,-4.8 -0.3,1.2 1.2,2.7 0.3,4.8z"/>
  <path class="fil1" d="M146.25 -40.5 c -1.8,-2.1 1.2,-3.9 0.6,-6.3 2.4,-0.6 3.3,2.4 6.0,2.7 l0.9 2.7 c -2.1,0.3 -4.8,0 -7.5,0.9 l0 0z"/>
  <path class="fil3" d="M-145.65 -41.1 c 0.9,-0.9 0,-1.8 0.9,-3.3 0.6,0.9 0.3,2.4 -0.9,3.3z"/>
  <path class="fil1" d="M157.35 -41.4 c -0.6,-0.6 0,-1.2 0.3,-2.7 1.5,-0.3 3.9,-0.9 4.5,-3 0.9,0.6 0.9,3 1.2,4.5 -0.9,1.5 -3.6,0.9 -6.0,1.2z"/>
  <path class="fil3" d="M-155.55 -41.7 c -1.5,-0.9 -2.1,-2.7 -4.8,-3.3 -3.0,-8.1 -1.5,-18.6 0.9,-27.6 l3.9 -6.6 c 0.6,0 1.8,0 2.7,0 7.8,10.5 7.8,23.7 4.8,35.1 -0.9,1.2 -2.7,1.2 -3.6,2.1 l-1.2 -0.6 c -0.3,-4.5 4.2,-5.7 5.7,-9 l-0.3 -0.9 -0.9 0 c -1.8,0 -1.8,1.8 -3.9,2.7 -2.7,-4.8 2.4,-7.5 4.8,-11.1 l-1.2 -0.6 c -1.8,-0.3 -1.5,1.2 -3.0,1.8 l-1.2 -0.6 c -0.9,-3.3 2.7,-4.8 4.5,-7.8 l-0.3 -0.6 c -1.5,-0.9 -1.8,0.6 -3.0,0.9 -1.5,-0.6 -0.6,-3 -1.5,-3.9 l-1.2 -0.6 c -1.2,0.6 -0.6,3 -0.9,4.5 -1.5,1.5 -1.8,-1.5 -3.6,-0.6 l-0.6 1.2 c 1.8,1.8 4.5,3.6 4.2,6.9 -1.5,1.5 -2.4,-2.4 -4.2,-0.9 l-0.9 0.6 5.1 6 c 0,1.2 0,2.4 0,4.5 l-0.9 0.3 c -0.6,-0.9 -1.8,-2.7 -4.2,-3.3 l-0.9 0.6 5.7 10.8z"/>
  <path class="fil3" d="M168.75 -44.1 c -0.9,-0.9 0.6,-2.7 -0.9,-3.9 l-1.8 0 3.3 -5.7 1.8 -0.6 c 0.9,2.1 0,4.5 0.6,7.2 -0.6,1.2 -1.5,1.8 -2.4,3 l-0.6 0z"/>
  <path class="fil3" d="M151.95 -47.1 c -2.7,-0.9 -2.7,-3.6 -4.5,-6 l3.6 -15.3 c 0.6,-1.2 2.4,-1.8 2.7,-3.9 0.9,-0.3 1.8,-1.8 3.6,-0.9 3.0,7.8 9.0,18.3 2.4,25.8 l-0.6 -0.3 c 0,-0.6 0.6,-2.1 1.2,-3 -1.2,-0.9 -1.2,0.9 -3.0,0.9 l-0.9 -0.3 c -0.9,-3.6 3.3,-5.1 4.5,-8.1 -0.9,-2.4 -2.1,2.7 -4.5,0.9 -1.2,-2.4 0.9,-5.1 2.7,-7.8 l-2.4 -0.9 c -0.6,-1.2 0.6,-2.7 -1.2,-4.8 -1.2,0 -1.2,2.4 -1.2,3.9 0,0.9 -2.4,0.6 -2.4,2.4 1.8,1.5 3.6,5.7 1.8,8.1 -1.8,-0.9 -1.2,-1.8 -2.7,-2.4 l-1.5 0.6 c 0.6,3 6.0,3.9 4.5,8.4 -1.5,0 -2.1,-1.8 -3.9,-2.7 l-1.2 1.5 c 0.6,1.2 2.1,1.8 3.0,3.6 l0 0.3z"/>
  <path class="fil4" d="M-160.95 -78.3 c -0.9,0 -0.9,-1.8 -0.9,-2.7 0.6,-0.9 3.3,-0.3 3.3,0.9 0,0.9 -0.9,0.9 -2.4,1.8z"/>
  <path class="fil4" d="M-148.95 -78.9 c -0.9,-0.3 -1.8,-0.3 -1.5,-2.1 0.6,-0.3 1.8,-0.9 3.0,-0.6 l0.3 1.5 c 0,0.9 -0.9,0.9 -1.5,1.2 l-0.3 0z"/>
  <path class="fil3" d="M139.05 -79.8 c -1.2,0 0,-2.1 1.5,-1.2 l-1.5 1.2z"/>
  <polygon class="fil3" points="169.35,-79.8 170.25,-80.1 "/>
  <path class="fil3" d="M143.55 -80.1 c 0,-0.9 0.9,-1.5 1.8,-0.9 l-1.8 0.9z"/>
  <path class="fil3" d="M-160.95 -84.6 c -12.3,-4.5 -20.4,-13.2 -26.7,-26.7 0,-2.7 -1.2,-5.1 -0.9,-8.1 7.5,-0.9 16.2,6.3 21.9,10.8 0,1.5 2.7,2.1 2.4,3.9 l-1.5 0.6 c -1.8,1.2 0,4.8 -1.2,6.6 -5.4,-2.7 -2.7,-8.7 -4.5,-13.2 l-1.8 0.3 c 0.6,1.5 -0.9,3.3 0,4.8 l-0.9 0.6 c -3.6,-1.5 -1.2,-7.2 -3.6,-10.5 l-1.2 0.6 c -0.9,0.6 0.3,2.7 -0.9,3 0,-1.2 -2.4,-1.2 -2.7,-2.1 l-0.9 0.3 c -1.2,1.8 2.4,2.4 0.9,4.5 l-2.1 0.9 c 1.8,2.7 7.5,0.3 9.3,5.1 -0.9,1.5 -2.7,0 -4.2,1.5 l0 0.9 c 3.3,0.9 9.6,0 10.8,4.8 -0.9,1.5 -4.5,-0.3 -6.0,1.2 l0.6 1.5 10.2 2.1 c 0.3,1.5 -2.1,1.2 -1.8,2.4 1.8,1.5 5.4,0.6 7.2,3.9 l-2.4 0.3z"/>
  <path class="fil3" d="M-149.55 -84.6 c 0.6,-2.4 3.9,-3 6.3,-2.7 -1.2,1.8 -4.2,2.4 -6.3,2.7z"/>
  <path class="fil3" d="M152.85 -86.4 l-6.6 -7.2 c 0.9,-2.1 3.9,-4.8 7.2,-2.7 0.3,3 0.9,6.3 0,9.9 l-0.6 0z"/>
  <path class="fil3" d="M158.25 -86.4 l0.9 -11.1 c 1.5,0 2.4,-0.9 3.6,-1.8 0.3,1.5 1.8,4.2 1.8,6.6 l-6.3 6.3z"/>
  <path class="fil3" d="M-155.55 -86.4 c -1.5,-1.8 -3.0,-4.2 -3.9,-7.8 l0.6 -0.3 c 2.4,1.5 3.6,4.5 3.6,7.5 l-0.3 0.6z"/>
  <path class="fil3" d="M-152.25 -87 c -2.1,-1.8 0.9,-5.1 2.4,-5.7 l-2.4 5.7z"/>
  <path class="fil3" d="M-142.05 -87.9 c 0,-1.2 -1.5,-1.5 -3.0,-2.1 0,-1.8 1.5,-2.1 2.7,-3 2.1,0 4.5,0 6.9,0.9 -2.1,0.3 -3.3,3.9 -6.6,4.2z"/>
  <path class="fil3" d="M174.15 -92.1 c -1.5,0 1.2,-2.4 1.5,-1.2 l0 -1.8 c -0.6,-0.6 -1.8,0 -2.7,-0.3 l-0.9 -0.9 0.6 -1.2 c 2.1,-1.5 5.7,1.2 6.6,-2.4 0,-0.3 -0.9,-0.6 -2.4,-1.2 l0 -1.2 c 1.5,-2.4 4.5,-1.8 6.9,-3.3 1.8,-0.9 -0.3,-0.9 -0.9,-1.8 -0.6,-0.9 0.3,-1.5 0.6,-3 0.9,0 2.1,-0.9 0.6,-1.8 -1.2,0 -1.8,0.9 -3.0,1.8 -0.9,0 -0.3,-1.5 -2.4,-0.9 -1.8,2.1 0,6.6 -3.6,8.1 -2.1,-0.6 0.6,-4.2 -2.1,-5.1 -2.7,1.8 0.9,7.5 -2.7,10.5 -1.8,-0.6 0,-3.3 -1.8,-5.1 -1.2,-0.9 -1.5,0.6 -2.1,1.8 -0.3,-1.5 1.5,-2.7 1.5,-5.1 l12.3 -7.5 c 1.5,-2.1 4.8,-1.2 7.8,-2.7 -0.9,7.2 -3.9,16.2 -9.6,22.8 -0.6,0.9 -2.4,0 -3.6,1.5 l-0.6 0z"/>
  <path class="fil3" d="M-162.15 -92.1 c -2.7,-2.1 -1.2,-5.7 -1.8,-8.7 0.3,2.4 1.8,5.7 1.8,8.7z"/>
  <path class="fil3" d="M-145.95 -92.7 l1.5 -8.1 c 0.3,2.4 0.9,5.7 -1.2,7.8 l-0.3 0.3z"/>
  <path class="fil3" d="M-134.55 -93.3 l-0.9 -1.8 c -1.2,-0.6 -2.1,0 -3.9,-0.3 -0.6,-1.5 0.9,-3 2.4,-3.9 2.4,-0.9 4.8,0 7.5,-0.6 l0 1.5 c -1.8,0.9 -2.7,3.6 -5.1,5.1z"/>
  <path class="fil3" d="M-152.25 -94.2 c -1.5,-0.6 -0.9,-3.3 0,-5.1 l4.2 -4.5 -0.6 -1.2 c -1.8,0 -2.1,1.8 -4.2,2.4 -0.3,-1.5 0,-3 -0.3,-5.4 0.9,-2.4 5.7,-2.7 4.8,-6.3 -1.2,0 -2.1,0.6 -3.3,1.2 l-1.5 -0.6 c 0,-0.9 0,-2.1 0.9,-3.3 1.5,-0.6 2.4,-2.4 3.9,-4.2 l-0.6 -0.9 c -1.5,-0.6 -1.8,0.9 -3.3,1.2 -1.5,-0.3 -0.6,-1.8 -0.9,-3.3 l-0.9 -0.6 -1.2 0.3 c -0.6,0.9 0,2.1 -0.3,3.3 -1.2,1.2 -2.1,-1.5 -3.9,-1.5 l5.4 -10.2 c 8.1,7.2 7.5,20.7 7.5,30.3 -1.5,1.5 -0.6,3.3 -1.5,5.1 -1.8,0.6 -2.4,2.1 -4.2,3 l0 0.3z"/>
  <path class="fil3" d="M-155.55 -94.5 c -0.9,-0.3 -1.5,-0.6 -2.4,-1.8 l-2.4 0 c -2.7,-7.2 -1.8,-15.9 0,-23.7 l0.9 -0.3 c 2.7,1.8 4.5,4.5 3.9,8.1 -2.1,0 -2.4,-2.1 -4.8,-3.3 l-0.9 1.2 c 2.7,3 7.2,6 5.7,11.4 -1.5,0 -2.1,-1.8 -3.9,-2.7 l-0.9 0.6 c 0,2.4 3.6,3.3 4.5,5.7 0.6,1.5 0,3.3 0.3,4.8z"/>
  <path class="fil3" d="M133.05 -94.8 c -4.8,-5.1 -7.8,-14.1 -8.1,-21.9 l16.8 8.4 c 0,2.7 -0.3,5.4 0,8.4 l-0.9 -0.3 c -1.8,-2.4 -0.6,-5.4 -1.2,-8.1 l-1.5 -0.6 c -1.5,0.6 0,3.3 -1.5,4.2 l-1.2 -0.9 c -1.5,-0.9 -1.2,-3.9 -1.5,-6.6 l-2.4 0.9 -0.9 0 c -1.2,-0.9 -1.8,-3.3 -3.6,-3.6 l0 2.7 c 0.6,0.9 1.8,0.9 2.7,3.3 0,0.3 -1.2,0.6 -2.1,1.5 l0 0.9 c 1.8,0.9 3.9,0 6.0,1.5 l1.5 1.2 0.3 1.5 c -1.2,0.9 -2.1,0.9 -3.9,0.9 l-0.6 0.9 0.6 0.6 c 2.4,1.5 5.7,-0.3 8.1,2.4 l0 1.8 c -1.5,0 -4.2,-0.3 -6.3,0.9 l-0.3 0z"/>
  <path class="fil3" d="M-141.15 -99.3 c -0.9,-1.5 0,-3.3 -0.9,-4.8 l-2.1 -1.5 c 3.9,-6.6 12.9,-12.9 22.2,-13.8 0.9,3 -1.2,6.3 -1.8,9.9 -0.3,1.2 -2.4,0 -3.6,0 0,-1.2 1.2,-2.7 2.4,-4.5 l-1.2 -0.9 c -0.9,0 -1.2,0.9 -3.0,1.8 l-0.9 -1.8 -2.1 0 c -0.9,2.7 0.3,5.7 -1.8,8.4 l-1.5 -0.6 c 0,-1.2 0.3,-2.1 -0.9,-3.6 l-1.5 0 c -1.5,3.3 0.3,6.6 -1.5,9.9 0,0.3 -0.9,0.6 -1.8,1.5z"/>
  <path class="fil3" d="M151.95 -100.5 c -0.9,-0.6 -1.8,-1.2 -2.7,-2.7 -2.1,-8.7 1.8,-17.7 6.0,-25.5 l1.2 0 c 3.9,6 5.4,12.3 6.9,19.2 0,3 -0.9,6.9 -3.6,9 l0 -0.9 c 0.9,-0.9 1.8,-1.8 2.4,-3.3 l-1.2 -0.3 c -0.9,0.3 -1.8,0.9 -2.1,2.1 l-1.5 0 0 -2.1 4.2 -5.7 c -0.6,-1.5 -2.4,0.3 -3.9,0.3 -1.2,0 0,-1.5 -0.9,-2.7 -0.6,-1.8 2.4,-2.7 2.1,-5.4 l-1.2 0 c -2.1,-1.5 0.6,-5.7 -2.1,-6.6 -1.5,1.5 0,5.7 -2.7,6.6 1.5,2.7 1.8,5.4 1.8,8.1 -0.9,0 -1.8,-0.3 -3.0,-0.9 l-0.6 0.9 c 0.9,2.1 3.6,3.3 3.6,6.6 -2.1,0.9 -2.7,-2.7 -4.5,-1.8 -0.6,0.9 0,2.1 0.9,3 0.6,0.3 0.9,0.9 1.5,1.8 l-0.6 0.3z"/>
  <path class="fil3" d="M-128.55 -100.8 c -0.6,-2.4 -3.6,0 -5.4,-2.1 0.9,-0.9 1.8,-2.7 3.6,-3.6 1.2,0.3 3.9,-0.6 4.8,0.9 -0.9,1.5 -1.5,3.3 -2.4,4.5 l-0.6 0.3z"/>
  <path class="fil5" d="M188.55 -104.7 c 0.3,-3.3 0,-8.4 1.2,-12 l1.8 0 -3 12z"/>
 </g>
 <g>
  <path class="fil5" d="M122.55 -27 c 0,-2.7 0,-5.7 0,-8.7 l21 -2.1 c 1.8,1.8 3.6,3.9 5.7,6.6 -2.4,3.3 -10.5,-3.3 -12.9,3 l-13.8 1.2z"/>
  <path class="fil5" d="M174.15 -27.3 c -1.2,-1.2 -3.0,-4.2 -6.0,-4.2 -2.1,0.3 -4.8,1.8 -7.2,1.8 0,-3 3.0,-4.8 5.1,-7.2 5.1,0.6 12.3,0 16.5,-4.5 l27 -1.2 -11.1 14.4 -24.3 0.9z"/>
  <path class="fil5" d="M-140.25 -28.2 c -1.5,-0.3 -2.4,0 -3.9,-0.3 l11.4 -9.3 c 3.6,-1.5 6.6,0 10.8,0 0.6,3 0,5.7 0.3,9 l-18.6 0.6z"/>
  <path class="fil5" d="M-191.55 -28.5 c -2.4,-0.6 -4.5,0 -6.6,-2.1 l-11.7 -14.7 29.4 2.7 12.9 11.1 c 1.5,0.3 3.0,0.9 3.9,2.4 l-27.9 0.6z"/>
  <path class="fil1" d="M122.55 -39 l0 -15.6 6.3 13.2 c 0.6,0.3 1.8,0.3 1.8,1.8 -2.4,0.6 -5.4,0.6 -8.1,0.6z"/>
  <path class="fil1" d="M-127.05 -41.1 l-0.3 -0.3 5.4 -11.1 0.3 10.8 c -0.6,1.5 -3.0,0 -4.8,0.6 l-0.6 0z"/>
  <path class="fil1" d="M144.45 -54.3 c -2.7,-3 -5.7,-4.8 -9.6,-6.9 l0.6 -1.2 10.8 -3 c 0.6,3.6 -0.9,7.2 -1.8,11.1z"/>
  <path class="fil1" d="M-143.25 -58.2 c -1.5,-2.4 -0.3,-4.5 -0.9,-7.2 1.8,0 4.8,0 6.3,2.4 -1.5,2.1 -3.3,2.4 -5.1,4.2 l-0.3 0.6z"/>
  <path class="fil5" d="M127.95 -63.6 c -1.5,0 -3.0,-1.5 -5.1,-2.4 l-0.3 -16.5 c 5.7,-4.8 13.8,-8.1 21,-7.8 l5.4 6.3 c -2.7,2.1 -7.2,-1.5 -10.8,0.9 0,0.3 -0.3,1.2 -1.5,2.1 l1.2 2.1 c 3.9,4.5 11.1,-2.4 15.9,1.5 l-3.6 6.6 -22.2 7.2z"/>
  <path class="fil5" d="M-133.95 -66 l-12.3 -3.9 c -1.2,-1.5 -1.2,-4.5 -1.2,-6.6 l1.8 -0.9 c 0.9,-1.8 0,-3.6 0.6,-5.4 l12 -7.5 11.1 4.8 0.3 15.3 -12.3 4.2z"/>
  <path class="fil5" d="M160.35 -72.6 c -1.2,-0.9 -0.6,-3 -2.1,-4.2 l0.6 -1.2 0.9 -0.9 c 3.3,0.6 7.5,2.4 11.4,2.1 0.6,-1.2 1.5,-1.2 1.8,-2.4 0.6,-1.2 0,-2.4 -0.9,-3.6 -3.3,-1.8 -6.6,0 -9.9,0 l-0.3 -1.2 c 1.5,-2.4 3.0,-4.2 6.3,-6 3.6,0.9 8.1,1.8 12,-1.8 2.1,-1.2 3.0,-3.9 5.4,-6.6 0.3,0.9 0.9,2.1 0.9,3 l16.5 10.8 -42.6 12z"/>
  <path class="fil5" d="M-163.05 -74.4 l-39 -11.1 18 -12.3 c 6.3,6.3 9.9,10.2 20.4,15 -0.9,2.4 0,5.4 2.4,7.2 l-1.8 1.2z"/>
  <path class="fil1" d="M122.85 -108.6 c 2.1,6 4.5,12.9 9.6,16.8 l-9 4.8 -0.6 -21.6z"/>
  <polygon class="fil1" points="-122.55,-88.8 -130.05,-93.3 -122.25,-106.2 "/>
  <polygon class="fil5" points="125.85,-119.4 122.25,-119.4 122.25,-135.3 109.95,-135.6 150.45,-174.602 151.05,-155.1 170.25,-150 "/>
  <path class="fil5" d="M-127.35 -122.1 l-42.9 -32.1 19.5 -2.4 0.9 -22.8 42.9 44.1 -15 0 0 10.8 c -0.9,1.8 -3.0,2.1 -5.4,2.4 l0 0z"/>
  <polygon class="fil5" points="-70.65,-135.3 -117.75,-203.702 -96.15,-201.902 -90.15,-221.102 -50.55,-135.3 "/>
  <path class="fil5" d="M-25.35 -135.3 l-26.1 -99.3 20.1 8.1 12.3 -14.1 c 4.5,33.9 7.2,70.8 10.2,105.3 l-16.5 0z"/>
  <polygon class="fil5" points="12.15,-135.3 22.35,-240 36.75,-225.302 53.55,-234.902 28.65,-135.3 "/>
  <polygon class="fil5" points="52.35,-135.3 91.65,-219.302 99.15,-200.102 120.75,-201.902 73.95,-135.3 "/>
 </g>
 <path class="fil0 str0" d="M-16.65 181.2 c -25.2,-5.1 -47.4,-12.9 -66.6,-24.9 l30.9 25.8 c 15,9.9 28.8,12 43.2,15 l-7.5 -15.9z"/>
 <path class="fil0 str0" d="M14.55 181.2 c 25.2,-4.8 45.3,-12 64.5,-24 l-31.2 26.1 c -12.6,7.2 -27.6,10.2 -42.9,13.5 l9.6 -15.6z"/>
 <path class="fil0 str0" d="M88.65 198.9 c 19.8,-12.6 36.9,-26.7 51.3,-42.6 l-18.3 33 -36 28.2 3 -18.6z"/>
 <polygon class="fil5" points="-11.85,-60 -2.55,-60 0.45,-68.7 3.15,-60 12.45,-60 4.95,-54.3 7.95,-45.6 0.45,-51 -7.05,-45.6 -4.35,-54.3 "/>
 <g>
  <g>
  <path class="fil5" d="M-53.25 66.9 c 0,-0.9 -1.5,-0.3 -1.5,-1.5 -0.9,0 -1.2,-1.8 -0.6,-2.7 2.7,-2.1 5.7,0.9 9.0,0 2.1,-2.1 0.9,-6.3 4.2,-8.1 1.2,-0.9 3.0,-0.6 5.1,-0.9 l0.9 -21.6 c -0.6,-1.8 -3.0,-0.9 -4.8,-1.5 -0.9,0 -1.5,1.5 -1.8,3 l-9.6 1.8 c -0.3,-0.9 -1.2,-2.7 -1.8,-3.9 l-7.2 -3.3 c -1.2,-1.2 0,-2.7 0.9,-3.3 2.7,1.2 6.3,-0.6 9.0,1.2 0,0.6 0,2.1 1.8,2.7 0.9,-1.5 2.7,0.9 4.2,0 0.3,-0.9 0.6,-2.1 1.2,-3 0.9,-1.2 3.0,-0.9 4.8,-1.8 2.4,-1.8 4.2,-4.8 3.6,-8.1 l-5.4 -13.5 c -0.9,-0.6 -3.9,0.3 -4.2,-1.5 0.3,-0.6 0.6,-1.2 2.1,-2.1 1.5,0 0.6,2.4 1.8,3 1.5,0.6 3.0,0.6 4.8,-0.6 0.6,-0.6 0.6,-1.5 0.9,-2.7 1.2,1.8 3.6,1.2 5.4,0 l0 -0.9 c -0.6,-0.9 -1.5,0 -2.7,-0.6 0.9,-2.1 4.5,-1.2 6.9,0 1.5,0.9 0.6,3 1.8,4.8 1.5,0.6 3.3,0 4.8,0.6 2.1,9.3 6.3,21.9 18.9,23.4 0.6,0.6 0.9,1.2 0.9,2.4 2.1,0 5.1,1.5 5.7,-1.2 2.4,-1.2 8.7,-1.5 11.1,0 0.3,1.2 1.2,1.2 2.1,1.8 0.9,-1.5 2.1,0.9 3.6,0 0,-0.6 0,-1.5 0.9,-2.4 l9.9 -0.3 c 1.2,0.3 1.2,1.2 2.1,2.7 0.9,-0.6 2.7,0.9 4.2,0 0.3,-1.5 0.9,-1.8 2.1,-2.4 3.3,0.3 6.6,-1.5 9.9,0.3 l0.9 1.5 c 0.3,0.9 1.8,0.6 3.3,0.6 -3.3,1.8 -7.5,0.9 -11.4,2.4 -1.8,4.2 -2.4,11.4 1.8,16.2 l-2.7 0.6 c -1.5,0.9 0,4.2 -1.5,5.1 -3.3,0.6 -6.6,0.6 -9.9,3.3 l-1.8 -1.8 c 1.5,-1.5 1.8,-4.2 0.9,-6.6 -3.0,0 -6.6,-0.9 -7.8,-4.5 l0 -2.7 c -1.5,-1.8 -3.9,-0.3 -5.4,-0.9 -1.8,0.6 -0.6,2.7 -1.2,3.6 1.8,2.1 4.8,1.2 5.7,3.3 l-30 1.2 c -0.6,1.8 -3.0,3.3 -5.4,3.3 l-11.1 -3.3 -10.2 10.2 c -6.0,0.9 -9.9,5.4 -13.2,8.7 -1.8,0 -3.3,0 -5.7,0 l-0.3 0z"/>
  <g>
   <path class="fil5" d="M2.55 67.2 l-0.9 -0.3 -0.6 -0.9 c 5.1,-4.8 14.4,-7.5 16.5,-16.2 2.1,-1.5 5.1,-1.5 7.5,0 1.2,0.9 -0.3,2.7 1.2,3.6 l0.6 0.3 0 1.2 c -2.7,2.1 -6.9,0.6 -9.6,2.1 -0.9,2.1 -0.3,6 -3.6,7.5 -0.9,0 -2.1,1.2 -3.3,0 -0.3,0.9 -1.5,0.9 -2.1,1.8 -1.5,1.2 -3.3,0.6 -5.7,0.9z"/>
   <path class="fil5" d="M50.25 67.2 c -1.8,-0.3 -1.8,-1.8 -3.9,-2.7 2.4,-1.8 6.6,-1.8 9.6,-1.8 0.6,0.9 1.5,2.7 0.6,3.9 -0.9,1.8 -3.9,0.3 -6.3,0.6z"/>
   <path class="fil5" d="M53.85 56.4 c -1.2,-0.3 -3.0,-0.3 -5.1,-1.8 -0.3,-1.8 0,-3.6 1.2,-5.7 1.8,0 5.1,0 6.6,0.9 0.9,1.8 0,3.9 0,6.3 l-2.7 0.3z"/>
   <path class="fil5" d="M-69.75 27.9 c -0.9,-2.1 -1.2,-7.2 0.6,-9.3 0.6,0.3 0.9,1.2 1.5,2.4 -1.2,2.1 0,5.7 -2.1,6.9z"/>
   <path class="fil5" d="M14.55 19.5 l0.9 -1.5 8.7 -3.6 1.8 1.8 c -2.4,2.7 -7.2,3.3 -10.5,3.3 l-0.9 0z"/>
   <path class="fil5" d="M7.35 18.9 c -2.1,-1.2 -5.1,-3.6 -4.2,-7.5 l2.1 0 c 0.3,2.1 5.1,5.1 2.7,7.5 l-0.6 0z"/>
   <path class="fil5" d="M-44.25 16.2 c -0.9,-0.3 0,-2.1 0.3,-2.4 2.1,0 1.2,1.5 -0.3,2.4 l0 0z"/>
   <path class="fil5" d="M31.95 13.8 c -0.6,-0.3 -1.8,-0.3 -3.0,-0.9 0.3,-0.6 3.3,-1.5 4.2,-2.7 l1.5 0.3 c 0.9,0.6 0,1.2 0,2.4 -0.6,0 -1.5,0.3 -2.4,0.9 l-0.3 0z"/>
   <path class="fil5" d="M6.45 8.1 c -0.6,-0.9 -0.6,-2.1 -0.6,-3.3 4.5,-4.5 11.1,-1.5 16.8,-4.2 -0.6,3.9 -6.6,2.7 -7.2,7.2 -2.7,0 -5.1,-2.1 -8.7,0.3 l-0.3 0z"/>
  </g>
  </g>
  <polygon class="fil5 str0" points="40.95,2.69882 47.85,1.8 52.05,0.3 60.15,0.6 65.85,3.6 69.45,7.8 71.25,14.9988 68.55,21.6 62.85,27.3 56.55,29.1 55.35,26.7 57.45,24.3 62.25,19.8 64.95,14.1 62.85,8.69883 58.35,4.5 53.25,3.9 45.45,5.99883 38.85,9.6 "/>
 </g>
 <g>
  <path class="fil0 str0" d="M1.05 45.3 c -1.2,-0.3 -0.9,-2.7 -0.9,-4.5 0.6,-1.2 3.3,-0.3 5.1,-0.6 0.3,1.5 0.6,3.3 -0.3,4.8 l-3.9 0.3z"/>
  <path class="fil0 str0" d="M-33.15 45 l-0.6 -0.6 0 -2.7 c 0.9,-1.8 4.2,-2.4 5.7,-0.9 0,1.2 0,1.8 0,3.6 -0.9,0.9 -2.4,0.3 -4.2,0.6 l-0.9 0z"/>
  <path class="fil0 str0" d="M-15.75 45 c -0.9,-1.5 0,-2.4 -0.3,-4.2 1.2,-0.9 2.7,-0.3 4.2,-0.6 1.8,1.5 -0.3,2.4 0.3,4.2 -0.6,0.9 -2.1,0.3 -3.6,0.6 l-0.6 0z"/>
  <path class="fil0 str0" d="M35.55 45 c -1.5,-0.3 0,-2.4 -0.9,-4.2 0.9,-0.9 3.3,-0.3 5.1,-0.6 l0.6 1.5 0 1.5 c -0.3,0.3 -0.6,1.2 -1.8,1.8 l-3 0z"/>
  <path class="fil0 str0" d="M-20.85 36.9 c -1.2,-0.6 -2.1,0 -3.6,-0.6 -1.2,-0.9 -0.3,-2.4 -0.9,-4.2 0.9,-0.9 3.0,-0.9 4.8,-0.9 0.9,0.6 0.9,2.7 0.9,4.2 l-1.2 1.5z"/>
  <path class="fil0 str0" d="M-7.05 36.9 c -1.2,-0.6 0,-3.3 -0.6,-5.1 0.9,-1.2 2.4,-0.3 3.9,-0.6 1.5,1.2 1.5,3.6 0,5.1 -0.9,0.9 -1.8,0 -3.3,0.6z"/>
  <path class="fil0 str0" d="M10.65 36.9 l-1.5 -1.5 c 0,-0.9 0,-1.8 0,-3.3 0.9,-0.9 2.7,-0.9 4.5,-0.9 0.9,0.9 0.3,2.4 0.9,4.2 -0.6,0.9 -1.8,1.8 -3.3,1.5 l-0.6 0z"/>
  <path class="fil0 str0" d="M27.45 36.3 l-1.5 -0.9 c 0,-0.9 0.3,-2.7 0.9,-3.9 1.5,-0.3 3.6,-0.3 4.8,0.3 0.6,0.9 0.3,2.7 -0.3,3.6 -1.2,0.9 -2.4,0.9 -3.9,0.9z"/>
  <path class="fil0 str0" d="M-31.95 28.8 l-1.5 -0.6 c 0,-1.5 0,-3.3 0,-4.8 1.5,-0.9 3.0,0 4.8,-0.3 0.9,0.9 0,1.8 0.6,3.3 l-0.9 1.8 -3 0.6z"/>
  <path class="fil0 str0" d="M-15.75 28.2 c -1.5,-0.9 0,-2.7 -0.3,-4.2 0.3,-1.8 2.7,-0.6 4.2,-0.9 l0.9 0.9 c 0,0.9 0.6,2.7 -0.9,3.9 -0.9,0.9 -1.8,0 -3.3,0.3 l-0.6 0z"/>
  <path class="fil0 str0" d="M-24.45 19.2 c -1.2,-0.9 -1.2,-5.1 0.6,-5.7 0.9,0.6 2.4,0.6 3.3,0 0.9,0.9 1.5,4.5 0.3,5.7 -0.9,0 -2.7,0 -4.2,0z"/>
  <path class="fil0 str0" d="M-31.95 11.1 l-1.5 -0.3 c 0,-1.5 0,-3 0,-5.1 0.6,-0.9 2.4,-0.3 3.9,-0.6 1.8,0.6 0.9,2.7 1.5,4.5 -0.6,1.2 -2.4,0.6 -3.9,1.5z"/>
 </g>
 <path class="fil2 str0" d="M-169.35 138.9 c 27.9,42.3 62.1,61.2 82.8,77.1 l-2.7 30.6 c -47.1,-15.3 -87.0,-51.6 -105.6,-92.7 l22.5 6.6 3 -21.6z"/>
 <path class="fil2 str0" d="M168.15 138.9 c -27.9,42.3 -62.1,61.2 -82.8,77.1 l2.7 30.6 c 47.1,-15.3 87.0,-51.6 105.6,-92.7 l-22.5 6.6 -3 -21.6z"/>
 <path class="fil2 str0" d="M-121.95 136.8 l-18.6 20.4 c 42.9,45.9 87.3,62.1 132,61.2 l0 -21.9 c -51.9,-11.4 -88.2,-33 -113.4,-59.7z"/>
 <path class="fil2 str0" d="M120.75 136.8 l20.4 19.5 c -44.1,47.1 -91.5,65.1 -137.4,64.2 l0 -23.7 c 53.1,-12 91.2,-32.7 117,-60.0z"/>
 <path class="fil1" d="M-127.05 161.999 l10.8 -10.2 3.3 3.6 -3.6 5.1 c 0,0.3 -0.3,0.6 -0.9,1.2 -0.3,0.6 -0.9,1.2 -1.2,1.8 0.3,-0.6 0.9,-0.9 1.5,-1.5 0.9,-0.3 1.2,-0.6 1.2,-0.6 l5.7 -3.3 3 3.3 -10.8 10.2 -2.1 -2.4 8.4 -7.5 -9.9 6 -1.8 -1.8 6.9 -9.6 -8.1 8.1 -2.4 -2.4zm17.1 9 l1.5 1.5 3.3 -5.7 -4.8 4.2zm-6.9 1.5 l12 -9.3 3 2.7 -6.9 13.5 -2.7 -2.4 1.5 -2.4 -2.1 -1.8 -2.1 2.1 -2.7 -2.4zm10.2 8.1 l6.6 -9.6 -2.1 -1.5 1.5 -2.4 7.5 5.1 -1.5 2.4 -2.4 -1.8 -6.9 9.9 -2.7 -2.1zm14.7 2.4 l1.2 -2.4 c 0.9,-1.5 1.2,-2.4 1.2,-2.7 0,-0.6 0,-0.9 -0.6,-1.2 -0.3,-0.3 -0.9,-0.3 -1.2,0 -0.3,0.3 -0.9,1.2 -1.8,2.4 l-1.5 2.4 c -0.6,1.5 -1.2,2.4 -1.2,2.7 0,0.6 0.3,0.9 0.9,1.2 0.3,0.3 0.9,0.3 1.2,0 0.3,-0.3 0.9,-1.2 1.8,-2.4zm-5.1 -4.5 c 0.9,-1.5 1.8,-2.7 2.4,-3.3 0.3,-0.6 0.9,-0.9 1.5,-1.2 0.6,-0.3 1.2,-0.6 2.1,-0.6 0.6,0.3 1.5,0.3 2.4,0.9 0.9,0.6 1.5,1.2 1.8,1.8 0.6,0.6 0.6,1.2 0.6,2.1 0.3,0.3 0,1.2 -0.3,1.8 -0.3,0.9 -0.9,2.1 -1.8,3.6 -0.9,1.5 -1.5,2.7 -2.1,3.3 -0.6,0.6 -0.9,0.9 -1.5,1.2 -0.6,0.3 -1.5,0.6 -2.1,0.6 -0.9,-0.3 -1.5,-0.3 -2.4,-0.9 -0.9,-0.6 -1.5,-1.2 -1.8,-1.8 -0.6,-0.6 -0.9,-1.2 -0.9,-2.1 0,-0.3 0,-1.2 0.6,-1.8 0.3,-0.9 0.6,-2.1 1.5,-3.6zm23.1 11.1 l-3 7.5 -2.4 -0.9 0.3 -0.9 c -0.3,0 -0.9,0.3 -1.5,0.3 -0.3,0 -0.9,0 -1.2,-0.3 -0.6,-0.3 -1.2,-0.6 -1.5,-0.9 -0.3,-0.6 -0.6,-0.9 -0.9,-1.5 -0.3,-0.6 -0.3,-1.5 0,-2.4 0,-0.9 0.6,-2.1 1.5,-4.2 0.6,-1.2 1.2,-2.4 1.5,-3.3 0.6,-0.6 0.9,-1.2 1.5,-1.5 0.6,-0.3 1.2,-0.6 2.1,-0.6 0.6,0 1.5,0 2.4,0.3 1.2,0.6 2.1,1.5 2.4,2.4 0.3,1.2 0.3,2.4 -0.3,3.9 0,0 0,0 0,0 -0.3,0.3 -0.3,0.3 -0.3,0.3 l-3 -1.2 0 -0.3 c 0.3,-0.6 0.6,-1.2 0.6,-1.8 0,-0.3 -0.3,-0.6 -0.6,-0.6 -0.6,-0.3 -0.9,-0.3 -1.2,0 -0.3,0.3 -0.9,1.5 -1.5,3 l-0.6 1.2 -0.3 0.9 c -0.6,1.5 -1.2,2.7 -1.2,3 0,0.6 0.3,0.9 0.9,0.9 0.3,0.3 0.6,0.3 0.9,0 0.6,-0.3 0.9,-0.9 1.2,-1.5 0,-0.3 0,-0.3 0,-0.6 0,0 0.3,0 0.3,-0.3 l-1.2 -0.3 0.9 -2.4 4.2 1.8zm5.1 1.5 c 0,0 0.3,0 0.3,0 0,0 0,0 0,0 0.9,0.3 1.2,0.3 1.8,0.3 0.3,-0.3 0.6,-0.6 0.9,-1.2 0.3,-0.6 0.3,-1.2 0,-1.5 -0.3,-0.3 -0.6,-0.6 -1.2,-0.9 -0.3,0 -0.3,0 -0.3,0 0,0 -0.3,-0.3 -0.3,-0.3 l-1.2 3.6zm-6.3 6.9 l5.1 -14.1 3.9 1.5 c 1.2,0.3 1.8,0.9 2.4,1.2 0.6,0.3 0.9,0.6 1.2,0.9 0.3,0.6 0.3,0.9 0.3,1.5 0,0.6 0,1.2 -0.3,1.8 -0.3,0.9 -0.6,1.5 -1.2,1.8 -0.3,0.6 -0.9,0.9 -1.8,0.9 0.9,0.9 1.2,2.1 0.6,3.9 0,0 0,0 0,0 0,0.3 -0.3,0.3 -0.3,0.9 -0.6,1.5 -0.6,2.4 -0.3,3 l-3.9 -1.2 c 0,-0.3 0.3,-0.6 0.3,-1.2 0,-0.3 0,-0.6 0.3,-0.9 0,-0.3 0,-0.6 0.3,-0.9 0,-0.3 0.3,-0.3 0.3,-0.6 0.3,-0.9 0.3,-1.5 0.3,-1.8 -0.3,-0.3 -0.6,-0.6 -1.2,-0.9 l-0.6 -0.3 -2.1 5.7 -3.3 -1.2zm18.6 0 l0.6 -2.7 c 0.6,-1.5 0.6,-2.7 0.6,-3 0,-0.3 -0.3,-0.6 -0.9,-0.9 -0.6,0 -0.9,0 -1.2,0.3 -0.3,0.3 -0.9,1.2 -1.2,2.7 l-0.9 2.7 c -0.3,1.5 -0.6,2.4 -0.3,3 0,0.3 0.3,0.6 0.9,0.9 0.3,0 0.9,0 1.2,-0.3 0.3,-0.3 0.6,-1.2 1.2,-2.7zm-6 -3.3 c 0.6,-1.5 0.9,-2.7 1.5,-3.6 0.3,-0.6 0.6,-1.2 0.9,-1.8 0.6,-0.3 1.5,-0.6 2.1,-0.9 0.9,0 1.5,0 2.4,0.3 1.2,0.3 1.8,0.6 2.4,1.2 0.6,0.6 0.9,1.2 1.2,1.8 0,0.6 0.3,1.2 0,2.1 0,0.9 -0.3,2.1 -0.9,3.9 -0.3,1.5 -0.9,2.7 -1.2,3.6 -0.3,0.6 -0.6,1.2 -1.2,1.5 -0.6,0.6 -1.2,0.9 -2.1,1.2 -0.6,0 -1.5,0 -2.4,-0.3 -0.9,-0.3 -1.5,-0.6 -2.1,-1.2 -0.6,-0.6 -1.2,-1.2 -1.2,-1.8 -0.3,-0.6 -0.3,-1.2 -0.3,-2.1 0.3,-0.9 0.6,-2.1 0.9,-3.9zm10.5 5.7 l3 0.6 0 0.6 c -0.3,0.6 -0.3,1.2 -0.3,1.8 0.3,0.3 0.6,0.6 0.9,0.6 0.3,0 0.6,0 0.9,0 0.3,-0.3 0.6,-0.6 0.6,-1.2 0.3,-0.6 0,-1.5 -0.9,-2.4 -0.3,0 -0.3,0 -0.3,-0.3 0,0 0,0 -0.3,0 -0.9,-1.2 -1.8,-2.1 -1.8,-2.7 -0.3,-0.3 -0.3,-0.9 -0.3,-1.2 0,-0.6 0,-1.2 0,-1.5 0.3,-1.5 1.2,-2.4 2.1,-2.7 0.9,-0.6 1.8,-0.9 3.0,-0.3 1.5,0.3 2.4,0.9 3.0,1.8 0.6,0.9 0.6,1.8 0.3,3.3 0,0 0,0 0,0.3 0,0 0,0 0,0 l-3 -0.6 0 -0.3 c 0,-0.6 0.3,-1.2 0,-1.5 0,-0.3 -0.3,-0.6 -0.6,-0.6 -0.3,0 -0.6,0 -0.9,0 -0.3,0.3 -0.6,0.6 -0.6,0.9 0,0.6 0.3,1.5 1.2,2.4 0.3,0.3 0.3,0.3 0.3,0.3 0.3,0.3 0.3,0.3 0.3,0.3 1.2,1.2 1.8,2.1 1.8,2.7 0.3,0.3 0.3,0.6 0.3,1.2 0,0.3 0,0.9 -0.3,1.5 -0.3,1.2 -0.9,2.4 -1.8,3 -0.9,0.6 -2.1,0.6 -3.6,0.3 -1.5,-0.3 -2.4,-0.9 -3.0,-2.1 -0.6,-0.9 -0.6,-2.1 -0.3,-3.6 0,0 0,0 0,-0.3 0.3,0 0.3,0 0.3,-0.3 l0 0zm9.9 2.4 l3 0.6 0 0.6 c -0.3,0.6 -0.3,1.2 -0.3,1.8 0.3,0.3 0.6,0.6 0.9,0.6 0.6,0 0.9,0 0.9,-0.3 0.3,0 0.6,-0.3 0.6,-0.9 0.3,-0.6 -0.3,-1.5 -0.9,-2.4 -0.3,0 -0.3,-0.3 -0.6,-0.3 0,0 0,0 0,0 -1.2,-1.2 -1.8,-2.1 -2.1,-2.7 -0.3,-0.3 -0.3,-0.9 -0.3,-1.2 0,-0.6 0,-1.2 0,-1.5 0.3,-1.2 0.9,-2.4 1.8,-2.7 0.9,-0.6 2.1,-0.9 3.3,-0.6 1.5,0.3 2.4,0.9 3.0,1.8 0.6,0.9 0.6,2.1 0.6,3.3 -0.3,0 -0.3,0 -0.3,0.3 0,0 0,0 0,0.3 l-3 -0.9 0 0 c 0.3,-0.6 0.3,-1.2 0,-1.5 0,-0.3 -0.3,-0.6 -0.6,-0.6 -0.3,-0.3 -0.6,0 -0.9,0 -0.3,0.3 -0.6,0.6 -0.6,0.9 0,0.6 0.3,1.5 1.2,2.4 0.3,0 0.3,0.3 0.6,0.3 0,0 0,0.3 0.3,0.3 0.9,0.9 1.5,1.8 1.8,2.4 0,0.3 0.3,0.9 0.3,1.2 0,0.6 0,0.9 -0.3,1.5 -0.3,1.5 -0.9,2.4 -1.8,3 -0.9,0.6 -2.1,0.9 -3.3,0.6 -1.5,-0.3 -2.7,-0.9 -3.3,-1.8 -0.6,-0.9 -0.6,-2.1 -0.3,-3.6 0,0 0,-0.3 0,-0.3 0,-0.3 0,-0.3 0.3,-0.6 l0 0zm16.5 2.4 l0.6 -2.7 c 0.3,-1.5 0.3,-2.4 0,-3 0,-0.3 -0.3,-0.6 -0.9,-0.6 -0.6,-0.3 -0.9,0 -1.2,0.3 -0.3,0.3 -0.6,1.2 -0.9,3 l-0.3 2.7 c -0.3,1.5 -0.3,2.4 -0.3,3 0,0.3 0.6,0.6 0.9,0.6 0.6,0.3 0.9,0 1.2,-0.3 0.3,-0.3 0.6,-1.2 0.9,-3.0zm-6 -2.4 c 0.3,-1.8 0.6,-3 0.9,-3.9 0.3,-0.6 0.6,-1.2 0.9,-1.8 0.6,-0.3 1.2,-0.9 1.8,-0.9 0.9,-0.3 1.8,-0.3 2.7,-0.3 0.9,0.3 1.8,0.6 2.4,0.9 0.6,0.6 0.9,1.2 1.2,1.8 0.3,0.6 0.3,1.2 0.3,2.1 0,0.9 0,2.1 -0.3,3.9 -0.3,1.8 -0.6,3 -0.9,3.9 -0.3,0.6 -0.6,1.2 -1.2,1.8 -0.3,0.3 -0.9,0.9 -1.8,0.9 -0.6,0.3 -1.5,0.3 -2.4,0.3 -0.9,-0.3 -1.8,-0.6 -2.4,-0.9 -0.6,-0.6 -1.2,-1.2 -1.5,-1.8 0,-0.6 -0.3,-1.2 -0.3,-2.1 0,-0.9 0.3,-2.1 0.6,-3.9z"/>
 <path class="fil2 str0" d="M-69.75 132.3 l-15.3 23.1 c 53.1,34.2 110.4,36.6 167.7,-1.2 l-15 -20.1 c -40.8,24 -87.0,25.2 -137.4,-1.8z"/>
 <path class="fil6" d="M-127.65 160.5 c 20.4,26.7 56.1,43.5 105.6,51.6"/>
 <path class="fil1" d="M42.15 194.4 l1.5 9.3 c 0,0 0,0 0,0 0.3,0 0.3,0 0.3,0 0.6,0 0.9,-0.3 0.9,-0.3 0.3,-0.3 0.6,-0.3 0.6,-0.6 0,-0.3 0.3,-0.6 0,-1.2 0,-0.6 0,-1.5 -0.3,-3 l0 -0.6 c -0.3,-1.2 -0.3,-2.1 -0.6,-2.4 0,-0.6 -0.3,-0.9 -0.3,-0.9 -0.3,-0.3 -0.3,-0.3 -0.6,-0.3 -0.3,-0.3 -0.6,-0.3 -1.2,0 0,0 0,0 -0.3,0 0,0 0,0 0,0 l0 0zm-1.5 12.6 l-2.4 -15 3.6 -0.6 c 1.5,0 2.7,0 3.3,0 0.6,0 1.2,0.6 1.8,0.9 0.3,0.6 0.6,0.9 0.9,1.8 0.3,0.6 0.6,2.1 0.9,3.9 0.3,2.1 0.3,3.3 0.3,4.2 0,0.6 0,1.2 -0.3,1.8 -0.3,0.6 -0.6,1.2 -1.5,1.5 -0.6,0.3 -1.5,0.6 -3.0,0.9 l-3.6 0.6zm17.4 -10.2 l-0.6 -2.7 c -0.6,-1.5 -0.9,-2.4 -1.2,-2.7 -0.3,-0.3 -0.9,-0.6 -1.5,-0.3 -0.3,0 -0.6,0.3 -0.9,0.9 0,0.3 0.3,1.5 0.6,3 l0.9 2.7 c 0.6,1.5 0.9,2.4 1.2,2.7 0.3,0.3 0.6,0.3 1.2,0.3 0.6,-0.3 0.9,-0.6 0.9,-0.9 0.3,-0.6 0,-1.5 -0.6,-3 l0 0zm-6.6 0.6 c -0.3,-1.8 -0.9,-3 -0.9,-3.9 0,-0.9 0,-1.5 0,-2.1 0.3,-0.6 0.6,-1.5 1.2,-1.8 0.6,-0.6 1.5,-0.9 2.4,-1.2 0.9,-0.3 1.8,-0.6 2.4,-0.3 0.9,0 1.5,0.3 2.1,0.9 0.3,0.3 0.9,0.9 1.2,1.8 0.3,0.6 0.9,1.8 1.2,3.6 0.6,1.8 0.9,3 1.2,3.9 0,0.6 0,1.5 -0.3,2.1 0,0.6 -0.6,1.2 -1.2,1.8 -0.3,0.6 -1.2,0.9 -2.1,1.2 -0.9,0.3 -1.8,0.3 -2.4,0.3 -0.9,-0.3 -1.5,-0.6 -2.1,-0.9 -0.6,-0.6 -0.9,-0.9 -1.2,-1.8 -0.3,-0.6 -0.9,-2.1 -1.5,-3.6zm25.8 -7.2 l3 -1.5 0 0.3 c 0.3,0.6 0.9,1.2 1.2,1.5 0.3,0 0.6,0 0.9,0 0.6,-0.3 0.6,-0.6 0.6,-0.9 0.3,-0.3 0,-0.6 0,-0.9 -0.3,-0.9 -1.2,-1.2 -2.4,-1.2 -0.3,0 -0.3,0 -0.6,0 0,0 0,0 0,0 -1.8,-0.3 -3.0,-0.6 -3.3,-0.9 -0.6,0 -0.9,-0.3 -1.2,-0.6 -0.3,-0.3 -0.6,-0.9 -0.9,-1.2 -0.6,-1.2 -0.6,-2.4 -0.3,-3.3 0.3,-1.2 0.9,-1.8 2.1,-2.4 1.2,-0.9 2.4,-0.9 3.6,-0.6 0.9,0.3 1.8,0.9 2.4,2.1 0,0 0,0.3 0,0.3 0,0 0.3,0.3 0.3,0.3 l-3 1.5 0 -0.3 c -0.3,-0.6 -0.6,-0.9 -0.9,-1.2 -0.3,-0.3 -0.6,-0.3 -1.2,0 -0.3,0.3 -0.3,0.3 -0.3,0.6 -0.3,0.3 0,0.6 0,1.2 0.3,0.3 1.2,0.9 2.4,0.9 0.3,0 0.6,0 0.6,0 0.3,0 0.3,0 0.6,0 1.5,0.3 2.4,0.3 3.0,0.6 0.3,0.3 0.6,0.6 0.9,0.9 0.3,0.3 0.6,0.6 0.9,1.2 0.6,1.2 0.9,2.4 0.6,3.6 -0.3,0.9 -1.2,1.8 -2.4,2.7 -1.5,0.6 -2.7,0.9 -3.6,0.6 -0.9,-0.3 -1.8,-1.2 -2.7,-2.7 0,0 0,0 0,-0.3 0,0 -0.3,-0.3 -0.3,-0.3 l0 0zm6 -14.7 l3 -1.8 5.1 8.1 c 0.6,1.2 1.2,1.8 1.5,2.1 0.3,0 0.6,0 1.2,-0.3 0.3,0 0.6,-0.3 0.3,-0.9 0,-0.3 -0.3,-1.2 -0.9,-2.4 l-5.1 -7.8 3 -1.8 5.1 8.1 c 0.6,0.9 0.9,1.5 1.2,2.1 0,0.6 0.3,0.9 0.3,1.5 0,0.6 -0.3,1.5 -0.6,2.1 -0.3,0.6 -1.2,1.2 -2.1,1.8 -0.6,0.3 -1.5,0.6 -2.1,0.9 -0.9,0 -1.5,-0.3 -2.1,-0.6 -0.6,-0.3 -0.9,-0.6 -1.5,-1.2 -0.3,-0.6 -1.2,-1.5 -2.1,-3 l-4.2 -6.9zm25.8 0.3 l-6.3 4.8 -9 -12 2.7 -2.1 7.2 9.6 3.6 -2.7 1.8 2.4z"/>
 <path class="fil6" d="M35.25 207.3 c 25.8,-0.9 56.4,-16.2 77.1,-34.5"/>
 <path class="fil1" d="M-51.75 164.7 l2.4 -7.8 -2.7 -0.9 0.6 -1.5 0 0 c 1.2,0.3 1.8,0.3 2.4,0.3 0.6,-0.3 0.9,-0.6 1.5,-1.5 l1.8 0.6 -3.9 11.7 -2.1 -0.9zm9.3 3 l2.4 -7.8 -3 -0.9 0.6 -1.5 0 0 c 1.2,0.3 1.8,0.3 2.4,0 0.6,0 1.2,-0.6 1.5,-1.2 l1.8 0.6 -3.3 11.7 -2.4 -0.9zm11.4 -0.6 l0.6 -2.1 4.5 0.9 -0.3 2.4 -4.8 -1.2zm13.8 6 l0.9 -8.1 -3 -0.3 0.3 -1.8 0 0 c 1.2,0 1.8,0 2.4,-0.3 0.6,-0.3 0.9,-0.6 0.9,-1.5 l2.1 0.3 -1.2 12 -2.4 -0.3zm9 -4.8 c 0,1.5 0,2.7 0.3,3.3 0.3,0.6 0.6,0.9 1.2,0.9 0.6,0.3 1.2,0 1.5,-0.9 0.3,-0.6 0.6,-1.5 0.9,-3 0,-1.5 0,-2.7 -0.3,-3.3 -0.3,-0.6 -0.9,-1.2 -1.5,-1.2 -0.6,0 -1.2,0.3 -1.5,0.9 -0.3,0.6 -0.6,1.8 -0.6,3.3zm-2.4 -0.3 c 0,-2.1 0.6,-3.6 1.2,-4.5 0.9,-0.9 2.1,-1.5 3.6,-1.5 1.5,0.3 2.4,0.9 3.0,2.1 0.9,0.9 0.9,2.7 0.9,4.5 -0.3,2.1 -0.6,3.9 -1.5,4.8 -0.6,0.9 -1.8,1.5 -3.3,1.2 -1.5,0 -2.7,-0.6 -3.3,-1.8 -0.6,-0.9 -0.9,-2.7 -0.6,-4.8 l0 0zm14.4 3 l-0.3 -2.4 4.8 0 0.3 2.4 -4.8 0zm14.4 2.4 l-1.2 -8.4 -2.7 0.6 -0.3 -1.8 0.3 0 c 0.9,0 1.8,-0.3 2.1,-0.9 0.3,-0.3 0.6,-0.9 0.6,-1.8 l2.1 0 1.5 12 -2.4 0.3zm10.5 -10.2 c 0,-0.6 -0.3,-1.2 -0.6,-1.5 -0.6,-0.3 -0.9,-0.3 -1.5,-0.3 -0.6,0.3 -1.2,0.6 -1.2,0.9 -0.3,0.3 -0.3,0.9 -0.3,1.8 0,0.6 0.3,0.9 0.9,1.2 0.3,0.3 0.9,0.6 1.5,0.3 0.3,0 0.9,-0.3 1.2,-0.6 0.3,-0.6 0.3,-0.9 0,-1.8 l0 0zm0.9 3.3 c -0.3,0.3 -0.6,0.6 -0.9,0.9 -0.6,0 -0.9,0.3 -1.2,0.3 -1.2,0.3 -2.4,0 -3.3,-0.6 -0.6,-0.6 -1.2,-1.5 -1.5,-2.4 -0.3,-1.5 0,-2.4 0.6,-3.3 0.6,-0.9 1.5,-1.5 2.7,-1.8 1.5,-0.3 2.7,0 3.6,0.9 1.2,0.6 1.8,2.1 2.1,4.2 0.3,2.1 0.3,3.6 -0.3,4.8 -0.6,1.5 -1.5,2.1 -3.3,2.4 -0.9,0.3 -1.8,0 -2.7,-0.3 -0.6,-0.3 -1.2,-1.2 -1.5,-2.1 l2.4 -0.3 c 0.3,0.3 0.6,0.6 0.9,0.6 0,0.3 0.6,0.3 0.9,0.3 0.6,-0.3 1.2,-0.6 1.2,-1.2 0.3,-0.6 0.3,-1.5 0.3,-2.4zm8.4 2.4 l-2.4 0.9 c -0.3,-1.8 -0.3,-3.6 -0.3,-5.1 0.3,-1.8 0.9,-3.9 1.5,-5.7 l-5.7 1.8 -0.6 -2.1 8.4 -2.4 0.6 1.8 c -0.9,1.8 -1.5,3.6 -1.8,5.4 0,1.8 0,3.6 0.3,5.4zm9.3 -3.3 l-2.4 1.2 c -0.3,-1.8 -0.6,-3.3 -0.6,-5.1 0,-1.8 0.3,-3.6 0.9,-5.7 l-5.4 2.1 -0.9 -1.8 8.1 -3.3 0.6 1.8 c -0.6,1.8 -0.9,3.6 -0.9,5.4 -0.3,1.8 0,3.6 0.6,5.4z"/>
 <path class="fil6" d="M-58.05 162.6 c 35.7,13.5 73.2,18.3 112.2,0"/>
 <polygon class="fil1" points="-77.85,-28.2 78.15,-28.2 78.15,-26.1 -77.85,-26.1 "/>
 <path class="fil4" d="M145.05 24.3 c 0.3,0 0.6,0 0.6,0.3 0,0 -0.3,0.3 -0.6,0.3 -0.3,0 -0.6,-0.3 -0.6,-0.3 0,-0.3 0.3,-0.3 0.6,-0.3z"/>
 <g>
  <polygon class="fil1" points="-100.836,-110.443 -104.313,-110.443 -101.574,-112.804 -102.521,-116.627 -99.5718,-114.378 -96.5163,-116.4 -97.675,-112.804 -94.83,-110.443 -98.4132,-110.331 -99.5718,-106.957 "/>
  <polygon class="fil1" points="-90.9616,-110.446 -94.3325,-110.446 -91.5935,-112.807 -92.5419,-116.631 -89.5915,-114.382 -86.6423,-116.405 -87.6958,-112.807 -84.85,-110.446 -88.538,-110.334 -89.6966,-106.961 "/>
  <polygon class="fil1" points="-80.6824,-110.443 -84.1584,-110.443 -81.3143,-112.804 -82.2627,-116.627 -79.5238,-114.378 -76.4683,-116.4 -77.5218,-112.804 -74.6777,-110.443 -78.3639,-110.331 -79.6289,-106.957 "/>
  <polygon class="fil1" points="-70.35,-110.443 -73.9324,-110.443 -71.0883,-112.804 -72.0356,-116.627 -69.1915,-114.378 -66.1371,-116.4 -67.2958,-112.804 -64.4517,-110.443 -68.0328,-110.331 -69.2966,-106.957 "/>
  <polygon class="fil1" points="-60.2269,-110.443 -63.7029,-110.443 -60.8588,-112.804 -61.806,-116.627 -58.9619,-114.378 -55.9076,-116.4 -56.9611,-112.804 -54.2221,-110.443 -57.6981,-110.331 -58.9619,-106.957 "/>
  <polygon class="fil1" points="-49.9938,-110.443 -53.3647,-110.443 -50.52,-112.804 -51.469,-116.627 -48.6237,-114.378 -45.5694,-116.4 -46.728,-112.804 -43.8839,-110.443 -47.465,-110.331 -48.73,-106.957 "/>
  <polygon class="fil1" points="-39.5835,-110.443 -43.06,-110.443 -40.3217,-112.804 -41.1639,-116.627 -38.3198,-114.378 -35.1591,-116.4 -36.3178,-112.804 -33.4737,-110.443 -37.056,-110.331 -38.3198,-106.957 "/>
  <polygon class="fil1" points="-29.3327,-110.443 -32.7036,-110.443 -29.9646,-112.804 -30.913,-116.627 -27.9638,-114.378 -24.9083,-116.4 -25.9619,-112.804 -23.1178,-110.443 -26.804,-110.331 -28.0689,-106.957 "/>
  <polygon class="fil1" points="-18.7264,-110.443 -22.0973,-110.443 -19.4634,-112.804 -20.4118,-116.627 -17.4614,-114.378 -14.4071,-116.4 -15.46,-112.804 -12.6166,-110.443 -16.3028,-110.331 -17.5677,-106.957 "/>
  <polygon class="fil1" points="-8.41773,-110.443 -11.8937,-110.443 -9.15474,-112.804 -10.1032,-116.627 -7.25907,-114.378 -4.09843,-116.4 -5.2571,-112.804 -2.413,-110.443 -5.99411,-110.331 -7.36419,-106.957 "/>
  <polygon class="fil1" points="1.85788,-110.443 -1.61811,-110.443 1.12,-112.804 0.172441,-116.627 3.12166,-114.378 6.17718,-116.4 5.01851,-112.804 7.86261,-110.443 4.28,-110.331 3.12166,-106.957 "/>
  <polygon class="fil1" points="12,-110.446 8.52876,-110.446 11.3729,-112.807 10.4256,-116.631 13.3748,-114.382 16.324,-116.405 15.27,-112.807 18,-110.446 14.5335,-110.334 13.2697,-106.961 "/>
  <polygon class="fil1" points="22.2768,-110.443 18.6945,-110.443 21.5386,-112.804 20.5914,-116.627 23.54,-114.378 26.7,-116.4 25.5426,-112.804 28.1752,-110.443 24.8044,-110.331 23.54,-106.957 "/>
  <polygon class="fil1" points="32.3186,-110.443 28.8414,-110.443 31.6855,-112.804 30.7382,-116.627 33.6875,-114.378 36.6379,-116.4 35.6894,-112.804 38.3233,-110.443 34.8461,-110.331 33.5823,-106.957 "/>
  <polygon class="fil1" points="42.6887,-110.443 39.1076,-110.443 41.9517,-112.804 41,-116.627 43.9536,-114.378 46.9028,-116.4 45.8493,-112.804 48.6934,-110.443 45.1123,-110.331 43.8473,-106.957 "/>
  <polygon class="fil1" points="52.6796,-110.443 49.2025,-110.443 51.9414,-112.804 50.9942,-116.627 53.9434,-114.378 57,-116.4 55.84,-112.804 58.6844,-110.443 55.2072,-110.331 53.8383,-106.957 "/>
  <polygon class="fil1" points="62.5383,-110.443 59.0623,-110.443 61.9064,-112.804 60.958,-116.627 63.8033,-114.378 66.8576,-116.4 65.6989,-112.804 68.543,-110.443 64.9619,-110.331 63.8033,-106.957 "/>
  <polygon class="fil1" points="72.4738,-110.443 68.9978,-110.443 71.8419,-112.804 70.8934,-116.627 73.7387,-114.378 76.6879,-116.4 75.5293,-112.804 78.4785,-110.443 74.7911,-110.331 73.6324,-106.957 "/>
  <polygon class="fil1" points="82.4092,-110.477 78.8281,-110.477 81.6722,-112.839 80.7238,-116.661 83.673,-114.412 86.6234,-116.437 85.5698,-112.839 88.3088,-110.477 84.8328,-110.365 83.673,-106.992 "/>
  <polyline class="fil6" points="82.4092,-110.477 78.8281,-110.477 81.6722,-112.839 80.7238,-116.661 83.673,-114.412 86.6234,-116.437 85.5698,-112.839 88.3088,-110.477 84.8328,-110.365 83.673,-106.992 82.4092,-110.477 "/>
  <polygon class="fil1" points="101.6,-110.446 98.1238,-110.446 100.968,-112.807 100.021,-116.631 102.865,-114.382 105.92,-116.405 104.867,-112.807 107.606,-110.446 104.023,-110.334 102.76,-106.961 "/>
  <polygon class="fil1" points="92.0411,-110.443 88.5651,-110.443 91.4092,-112.804 90.462,-116.627 93.3061,-114.378 96.36,-116.4 95.3069,-112.804 98.0458,-110.443 94.4647,-110.331 93.2,-106.957 "/>
  <polygon class="fil1" points="-28.415,122.947 -28.415,126.77 -30.5221,123.734 -34.1032,124.746 -31.9961,121.598 -33.893,118.225 -30.5221,119.462 -28.415,116.426 -28.31,120.248 -25.0441,121.598 "/>
  <polyline class="fil6" points="-28.415,122.947 -28.415,126.77 -30.5221,123.734 -34.1032,124.746 -31.9961,121.598 -33.893,118.225 -30.5221,119.462 -28.415,116.426 -28.31,120.248 -25.0441,121.598 -28.415,122.947 "/>
  <polygon class="fil1" points="-37.2638,119.574 -37.2638,123.285 -39.4761,120.248 -42.9532,121.26 -40.9513,118.113 -42.7418,114.852 -39.4761,115.976 -37.2638,112.94 -37.1587,116.875 -33.893,118.225 "/>
  <polyline class="fil6" points="-37.2638,119.574 -37.2638,123.285 -39.4761,120.248 -42.9532,121.26 -40.9513,118.113 -42.7418,114.852 -39.4761,115.976 -37.2638,112.94 -37.1587,116.875 -33.893,118.225 -37.2638,119.574 "/>
  <polygon class="fil1" points="-45.5859,115.414 -45.5859,119.236 -47.7981,116.2 -51.38,117.213 -49.2733,114.064 -51.17,110.804 -47.7981,111.929 -45.5859,108.892 -45.48,112.827 -42.215,114.177 "/>
  <polyline class="fil6" points="-45.5859,115.414 -45.5859,119.236 -47.7981,116.2 -51.38,117.213 -49.2733,114.064 -51.17,110.804 -47.7981,111.929 -45.5859,108.892 -45.48,112.827 -42.215,114.177 -45.5859,115.414 "/>
  <polygon class="fil1" points="-53.0658,110.916 -53.0658,114.74 -55.1729,111.703 -58.7552,112.715 -56.6481,109.566 -58.5438,106.306 -55.1729,107.543 -53.0658,104.506 -52.96,108.218 -49.695,109.68 "/>
  <polyline class="fil6" points="-53.0658,110.916 -53.0658,114.74 -55.1729,111.703 -58.7552,112.715 -56.6481,109.566 -58.5438,106.306 -55.1729,107.543 -53.0658,104.506 -52.96,108.218 -49.695,109.68 -53.0658,110.916 "/>
  <polygon class="fil1" points="-84.0474,78.3356 -83.4155,82.0454 -86.0482,79.4588 -89.42,81.1454 -87.84,77.66 -90.2624,74.7368 -86.7864,75.3 -85.1,71.9257 -84.3628,75.6368 -80.8868,76.3112 "/>
  <polygon class="fil1" points="-96.31,51.6143 -96.31,55.3253 -98.523,52.2899 -102.105,53.3 -99.9982,50.1532 -101.894,46.8922 -98.523,48.1288 -96.31,44.9812 -96.2057,48.9166 -92.94,50.2654 "/>
  <polygon class="fil1" points="-97.251,41.1355 -97.251,44.9587 -99.4632,41.9221 -103.045,42.9343 -100.938,39.7855 -102.834,36.5257 -99.4632,37.65 -97.251,34.7257 -97.1458,38.4367 -93.88,39.7855 "/>
  <polygon class="fil1" points="-97.251,30.1819 -97.251,33.893 -99.4632,30.8575 -103.045,31.8686 -100.938,28.72 -102.834,25.46 -99.4632,26.5843 -97.251,23.5489 -97.1458,27.4843 -93.88,28.8331 "/>
  <polygon class="fil1" points="-97.251,19.1197 -97.251,22.943 -99.4632,19.9063 -103.045,20.9185 -100.938,17.77 -102.834,14.51 -99.4632,15.6343 -97.251,12.711 -97.1458,16.5331 -93.88,17.8831 "/>
  <polygon class="fil1" points="-97.251,8.55 -97.251,12.3733 -99.4632,9.33781 -103.045,10.3488 -100.938,7.2 -102.834,3.82796 -99.4632,5.06458 -97.251,2.02914 -97.1458,5.85237 -93.88,7.3134 "/>
  <polygon class="fil1" points="-97.251,-2.7378 -97.251,1.08425 -99.4632,-1.95118 -103.045,-0.938978 -100.938,-4.0878 -102.834,-7.46104 -99.4632,-6.22442 -97.251,-9.25986 -97.1458,-5.43662 -93.88,-4.0878 "/>
  <polygon class="fil1" points="-97.251,-13.4469 -97.251,-9.84923 -99.4632,-12.7725 -103.045,-11.8736 -100.938,-14.9091 -102.834,-18.17 -99.4632,-16.9323 -97.251,-20.0811 -97.1458,-16.1457 -93.88,-14.7969 "/>
  <polygon class="fil1" points="-97.251,-24.7087 -97.251,-20.8867 -99.4632,-23.9221 -103.045,-22.91 -100.938,-26.0587 -102.834,-29.4319 -99.4632,-28.1953 -97.251,-31.23 -97.1458,-27.4075 -93.88,-26.0587 "/>
  <polygon class="fil1" points="-97.251,-35.5926 -97.251,-31.9938 -99.4632,-35.03 -103.045,-34.0182 -100.938,-37.0536 -102.834,-40.3146 -99.4632,-39.19 -97.251,-42.2257 -97.1458,-38.29 -93.88,-36.9414 "/>
  <polygon class="fil1" points="-97.251,-46.5922 -97.251,-42.769 -99.4632,-45.8056 -103.045,-44.7934 -100.938,-47.941 -102.834,-51.2021 -99.4632,-50.0777 -97.251,-53.1143 -97.1458,-49.1788 -93.88,-47.8288 "/>
  <polygon class="fil1" points="-97.251,-57.34 -97.251,-53.517 -99.4632,-56.5536 -103.045,-55.5414 -100.938,-58.6891 -102.834,-61.95 -99.4632,-60.7135 -97.251,-63.7489 -97.1458,-59.9269 -93.88,-58.5769 "/>
  <polygon class="fil1" points="-97.251,-67.9761 -97.251,-64.1529 -99.4632,-67.1883 -103.045,-66.1773 -100.938,-69.3249 -102.834,-72.6982 -99.4632,-71.4615 -97.251,-74.497 -97.1458,-70.6749 -93.88,-69.3249 "/>
  <polygon class="fil1" points="-97.251,-78.658 -97.251,-74.947 -99.4632,-77.9836 -103.045,-76.9714 -100.938,-80.119 -102.834,-83.38 -99.4632,-82.1435 -97.251,-85.1789 -97.1458,-81.3557 -93.88,-80 "/>
  <polygon class="fil1" points="-97.251,-89.3411 -97.251,-85.5191 -99.4632,-88.5545 -103.045,-87.5423 -100.938,-90.6911 -102.834,-94.0643 -99.4632,-92.8277 -97.251,-95.8632 -97.1458,-92.04 -93.88,-90.6911 "/>
  <polygon class="fil1" points="-97.251,-100.323 -97.251,-96.612 -99.4632,-99.6486 -103.045,-98.6364 -100.938,-101.785 -102.834,-105.045 -99.4632,-103.921 -97.251,-106.957 -97.1458,-103.022 -93.88,-101.672 "/>
  <polygon class="fil1" points="78.032,90.2494 78.032,94.0726 75.8198,91.036 72.3438,92.0482 74.45,88.9 72.5541,85.5273 75.8198,86.7639 78.032,83.84 78.1383,87.55 81.4041,88.9 "/>
  <polygon class="fil1" points="71.14,97.7612 71.14,101.583 68.9281,98.5478 65.3458,99.56 67.4529,96.4112 65.5572,93.038 68.9281,94.2746 71.14,91.2391 71.2454,95.0624 74.5112,96.4112 "/>
  <polygon class="fil1" points="91.0762,71.54 91.0762,75.3639 88.9691,72.3273 85.388,73.3395 87.495,70.1919 85.5982,66.8186 88.9691,68.0552 91.0762,65.0198 91.1813,68.8419 94.447,70.1919 "/>
  <polygon class="fil1" points="84.7939,81.05 84.7939,84.6486 82.5816,81.7253 78.9994,82.7376 81.1064,79.5887 79.21,76.3289 82.5816,77.4533 84.7939,74.4167 84.9,78.3521 88.1647,79.7021 "/>
  <polygon class="fil1" points="63.658,103.608 63.658,107.431 61.55,104.394 57.9686,105.406 60.0757,102.258 58.18,98.9978 61.55,100.122 63.658,97.0856 63.7631,101.021 67.0289,102.371 "/>
  <polyline class="fil6" points="63.658,103.608 63.658,107.431 61.55,104.394 57.9686,105.406 60.0757,102.258 58.18,98.9978 61.55,100.122 63.658,97.0856 63.7631,101.021 67.0289,102.371 63.658,103.608 "/>
  <polygon class="fil1" points="23.31,125.42 23.31,129.244 21.0981,126.208 17.5158,127.22 19.6229,124.071 17.7272,120.81 21.0981,121.935 23.31,118.9 23.4154,122.835 26.6812,124.184 "/>
  <polyline class="fil6" points="23.31,125.42 23.31,129.244 21.0981,126.208 17.5158,127.22 19.6229,124.071 17.7272,120.81 21.0981,121.935 23.31,118.9 23.4154,122.835 26.6812,124.184 23.31,125.42 "/>
  <polygon class="fil1" points="15.515,126.995 15.515,130.818 13.3,127.783 9.72,128.794 11.8276,125.646 9.93,122.385 13.3,123.509 15.515,120.474 15.62,124.409 18.78,125.758 "/>
  <polyline class="fil6" points="15.515,126.995 15.515,130.818 13.3,127.783 9.72,128.794 11.8276,125.646 9.93,122.385 13.3,123.509 15.515,120.474 15.62,124.409 18.78,125.758 15.515,126.995 "/>
  <polygon class="fil1" points="7.19175,127.895 7.19175,131.718 4.97954,128.681 1.50355,129.694 3.61,126.545 1.71378,123.285 4.97954,124.409 7.19175,121.373 7.29686,125.308 10.5626,126.658 "/>
  <polyline class="fil6" points="7.19175,127.895 7.19175,131.718 4.97954,128.681 1.50355,129.694 3.61,126.545 1.71378,123.285 4.97954,124.409 7.19175,121.373 7.29686,125.308 10.5626,126.658 7.19175,127.895 "/>
  <polygon class="fil1" points="-1.55197,128 -1.55197,131.83 -3.76418,128.794 -7.24,129.806 -5.2382,126.658 -7.03,123.397 -3.76418,124.521 -1.55197,121.485 -1.44685,125.42 1.8189,126.77 "/>
  <polyline class="fil6" points="-1.55197,128 -1.55197,131.83 -3.76418,128.794 -7.24,129.806 -5.2382,126.658 -7.03,123.397 -3.76418,124.521 -1.55197,121.485 -1.44685,125.42 1.8189,126.77 -1.55197,128 "/>
  <polygon class="fil1" points="-9.97915,127.445 -9.97915,131.268 -12.1914,128.231 -15.7737,129.244 -13.6666,126.096 -15.5622,122.835 -12.1914,123.959 -9.97915,120.923 -9.87403,124.858 -6.7134,126.208 "/>
  <polyline class="fil6" points="-9.97915,127.445 -9.97915,131.268 -12.1914,128.231 -15.7737,129.244 -13.6666,126.096 -15.5622,122.835 -12.1914,123.959 -9.97915,120.923 -9.87403,124.858 -6.7134,126.208 -9.97915,127.445 "/>
  <polygon class="fil1" points="-19.0394,126.096 -19.0394,129.918 -21.2516,126.883 -24.8327,127.895 -22.7268,124.746 -24.6225,121.485 -21.2516,122.609 -19.0394,119.574 -18.9343,123.509 -15.7737,124.858 "/>
  <polyline class="fil6" points="-19.0394,126.096 -19.0394,129.918 -21.2516,126.883 -24.8327,127.895 -22.7268,124.746 -24.6225,121.485 -21.2516,122.609 -19.0394,119.574 -18.9343,123.509 -15.7737,124.858 -19.0394,126.096 "/>
  <polygon class="fil1" points="32.2642,122.723 32.2642,126.545 30.052,123.509 26.576,124.521 28.5768,121.373 26.7863,118.113 30.052,119.236 32.2642,116.2 32.3694,120.136 35.6351,121.485 "/>
  <polyline class="fil6" points="32.2642,122.723 32.2642,126.545 30.052,123.509 26.576,124.521 28.5768,121.373 26.7863,118.113 30.052,119.236 32.2642,116.2 32.3694,120.136 35.6351,121.485 32.2642,122.723 "/>
  <polygon class="fil1" points="56.0729,109.792 56.0729,113.615 53.86,110.579 50.3836,111.591 52.3855,108.442 50.595,105.294 53.86,106.419 56.0729,103.382 56.1781,107.318 59.4438,108.555 "/>
  <polyline class="fil6" points="56.0729,109.792 56.0729,113.615 53.86,110.579 50.3836,111.591 52.3855,108.442 50.595,105.294 53.86,106.419 56.0729,103.382 56.1781,107.318 59.4438,108.555 56.0729,109.792 "/>
  <polygon class="fil1" points="48.4879,114.626 48.4879,118.449 46.2757,115.414 42.6934,116.426 44.8,113.277 42.9048,110.016 46.2757,111.141 48.4879,108.105 48.593,112.041 51.7536,113.39 "/>
  <polyline class="fil6" points="48.4879,114.626 48.4879,118.449 46.2757,115.414 42.6934,116.426 44.8,113.277 42.9048,110.016 46.2757,111.141 48.4879,108.105 48.593,112.041 51.7536,113.39 48.4879,114.626 "/>
  <polygon class="fil1" points="40.9028,119.236 40.9028,123.059 38.7957,120.024 35.2146,121.036 37.32,117.887 35.4249,114.626 38.7957,115.751 40.9028,112.715 41,116.651 44.2737,117.999 "/>
  <polyline class="fil6" points="40.9028,119.236 40.9028,123.059 38.7957,120.024 35.2146,121.036 37.32,117.887 35.4249,114.626 38.7957,115.751 40.9028,112.715 41,116.651 44.2737,117.999 40.9028,119.236 "/>
  <polygon class="fil1" points="-88.8037,69.4513 -88.1718,73.2745 -90.91,70.6879 -94.1766,72.2623 -92.5962,68.7769 -95.0187,65.8537 -91.4376,66.4159 -89.8573,63.0426 -89.12,66.7525 -85.7482,67.6525 "/>
  <polygon class="fil1" points="-92.8325,60.4855 -92.2195,64.1918 -94.8746,61.6844 -98.04,63.21 -96.5081,59.8324 -98.8573,56.9977 -95.3848,57.5434 -93.8529,54.2729 -93.1384,57.87 -89.87,58.7422 "/>
  <polygon class="fil1" points="97.1518,61.8237 97.1518,65.647 94.9384,62.61 91.4624,63.6226 93.4643,60.4749 91.5675,57.2139 94.9384,58.45 97.1518,55.4151 97.2569,59.2371 100.523,60.4749 "/>
  <polygon class="fil1" points="100.619,50.6481 100.619,54.3592 98.4073,51.3225 94.825,52.3347 96.9321,49.1871 95.0364,45.9261 98.4073,47.1627 100.619,44.015 100.725,47.95 103.99,49.3 "/>
  <polygon class="fil1" points="103.512,39.1536 103.512,42.9769 101.3,39.9414 97.72,40.9524 99.82,37.8048 97.93,34.5438 101.3,35.6682 103.512,32.7449 103.617,36.4548 106.778,37.8048 "/>
  <polygon class="fil1" points="103.512,28.6087 103.512,32.3197 101.3,29.2843 97.72,30.2953 99.82,27.1477 97.93,23.8867 101.3,25.0111 103.512,21.9756 103.617,25.9111 106.778,27.26 "/>
  <polygon class="fil1" points="103.512,18.0177 103.512,21.8398 101.3,18.8044 97.72,19.8166 99.82,16.6677 97.93,13.4079 101.3,14.5323 103.512,11.6079 103.617,15.4311 106.778,16.78 "/>
  <polygon class="fil1" points="103.512,7.17993 103.512,11 101.3,7.96655 97.72,8.97876 99.82,5.83 97.93,2.4567 101.3,3.69331 103.512,0.657875 103.617,4.48111 106.778,5.94214 "/>
  <polygon class="fil1" points="103.512,-3.36969 103.512,0.453544 101.3,-2.58308 97.72,-1.57 99.82,-4.71851 97.93,-8.09175 101.3,-6.85513 103.512,-9.89175 103.617,-6.06852 106.778,-4.71851 "/>
  <polygon class="fil1" points="103.512,-13.7398 103.512,-10.1421 101.3,-13.0654 97.72,-12.1666 99.82,-15.202 97.93,-18.463 101.3,-17.2264 103.512,-20.3741 103.617,-16.4386 106.778,-15.0898 "/>
  <polygon class="fil1" points="103.512,-24.5941 103.512,-20.77 101.3,-23.8075 97.72,-22.7953 99.82,-25.943 97.93,-29.3162 101.3,-28.0796 103.512,-31.1162 103.617,-27.293 106.778,-25.943 "/>
  <polygon class="fil1" points="103.512,-35.0729 103.512,-31.4741 101.3,-34.51 97.72,-33.4985 99.82,-36.5339 97.93,-39.795 101.3,-38.67 103.512,-41.706 103.617,-37.77 106.778,-36.4217 "/>
  <polygon class="fil1" points="103.512,-46.1351 103.512,-42.3119 101.3,-45.3485 97.72,-44.3363 99.82,-47.4851 97.93,-50.745 101.3,-49.62 103.512,-52.6572 103.617,-48.7217 106.778,-47.3717 "/>
  <polygon class="fil1" points="103.512,-57.2918 103.512,-53.4686 101.3,-56.504 97.72,-55.493 99.82,-58.64 97.93,-61.9 101.3,-60.6651 103.512,-63.7 103.617,-59.8773 106.778,-58.5285 "/>
  <polygon class="fil1" points="103.512,-67.9265 103.512,-64.1044 101.3,-67.14 97.72,-66.1277 99.82,-69.2765 97.93,-72.65 101.3,-71.4131 103.512,-74.4486 103.617,-70.6253 106.778,-69.2765 "/>
  <polygon class="fil1" points="103.512,-78.5423 103.512,-74.8324 101.3,-77.8679 97.72,-76.8557 99.82,-80 97.93,-83.2655 101.3,-82.0277 103.512,-85.0643 103.617,-81.2411 106.778,-79.8923 "/>
  <polygon class="fil1" points="103.512,-89.4285 103.512,-85.6053 101.3,-88.6419 97.72,-87.6297 99.82,-90.7785 97.93,-94.1517 101.3,-92.9139 103.512,-95.95 103.617,-92.1273 106.778,-90.7785 "/>
  <polygon class="fil1" points="103.512,-100.323 103.512,-96.612 101.3,-99.6486 97.72,-98.6364 99.82,-101.785 97.93,-105.045 101.3,-103.921 103.512,-106.957 103.617,-103.022 106.778,-101.672 "/>
  <polygon class="fil1" points="-66.5092,101.229 -66.5092,105.052 -68.7214,102.016 -72.3025,103.028 -70.1954,99.88 -72.0923,96.5069 -68.7214,97.7435 -66.5092,94.708 -66.4029,98.53 -63.2434,99.88 "/>
  <polygon class="fil1" points="-79.1375,87.1076 -79.1375,90.93 -81.2446,87.8943 -84.8257,88.9065 -82.7198,85.871 -84.6155,82.4978 -81.2446,83.7344 -79.1375,80.6978 -79.0324,84.521 -75.7667,85.871 "/>
  <polygon class="fil1" points="-73.0879,94.62 -73.0879,98.4439 -75.3,95.4073 -78.8824,96.4195 -76.7753,93.2718 -78.671,89.8986 -75.3,91.1352 -73.0879,88.1 -72.9828,91.9218 -69.7171,93.2718 "/>
  <polygon class="fil1" points="-59.8111,106.917 -59.8111,110.628 -62.0233,107.705 -65.5,108.717 -63.4985,105.568 -65.3942,102.195 -62.0233,103.432 -59.8111,100.396 -59.706,104.219 -56.44,105.568 "/>
 </g>
 </g>
</svg>