<?xml version="1.0" encoding="UTF-8" standalone="no"?>
<!-- Creator: CorelDRAW -->
<svg xmlns:dc="http://purl.org/dc/elements/1.1/" xmlns:cc="http://creativecommons.org/ns#"
    xmlns:rdf="http://www.w3.org/1999/02/22-rdf-syntax-ns#" xmlns:svg="http://www.w3.org/2000/svg"
    xmlns="http://www.w3.org/2000/svg" xmlns:xlink="http://www.w3.org/1999/xlink"
    xmlns:sodipodi="http://sodipodi.sourceforge.net/DTD/sodipodi-0.dtd"
    xmlns:inkscape="http://www.inkscape.org/namespaces/inkscape" xml:space="preserve" width="289.6598mm"
    height="335.79562mm" viewBox="0 0 14482989 16789782" version="1.0" id="svg91"
    sodipodi:docname="Escudo de Brasilia.svg"
    style="clip-rule:evenodd;fill-rule:evenodd;image-rendering:optimizeQuality;shape-rendering:geometricPrecision;text-rendering:geometricPrecision"
    inkscape:version="0.92.3 (2405546, 2018-03-11)">
    <metadata id="metadata95">
        <rdf:RDF>
            <cc:Work rdf:about="">
                <dc:format>image/svg+xml</dc:format>
                <dc:type rdf:resource="http://purl.org/dc/dcmitype/StillImage" />
                <dc:title />
            </cc:Work>
        </rdf:RDF>
    </metadata>
    <sodipodi:namedview pagecolor="#ffffff" bordercolor="#666666" borderopacity="1" objecttolerance="10"
        gridtolerance="10" guidetolerance="10" inkscape:pageopacity="0" inkscape:pageshadow="2"
        inkscape:window-width="1366" inkscape:window-height="706" id="namedview93" showgrid="false" fit-margin-top="2"
        fit-margin-left="2" fit-margin-right="2" fit-margin-bottom="2" inkscape:zoom="1.6369194" inkscape:cx="178.52112"
        inkscape:cy="292.57868" inkscape:window-x="-8" inkscape:window-y="-8" inkscape:window-maximized="1"
        inkscape:current-layer="g8279" />
    <defs id="defs5">
        <g id="G">
            <clipPath id="gcut">
                <path id="path1889" d="m -31.5,0 v -70 h 63 V 0 Z M 0,-47 v 12 h 31.5 v -12 z"
                    inkscape:connector-curvature="0" />
            </clipPath>
            <use height="100%" width="100%" y="0" x="0" id="use1892" clip-path="url(#gcut)" xlink:href="#O" />
            <path d="m 5,-35 h 26.5 v 10 H 5 Z" id="rect1894" inkscape:connector-curvature="0" />
            <path d="m 21.5,-35 h 10 V 0 h -10 z" id="rect1896" inkscape:connector-curvature="0" />
        </g>
        <g id="star" style="fill:#ffffff">
            <g id="c">
                <path d="M 0,-1 V 0 H 0.5" transform="rotate(18,0,-1)" id="t" inkscape:connector-curvature="0" />
                <use height="100%" width="100%" y="0" x="0" id="use1909" transform="scale(-1,1)" xlink:href="#t" />
            </g>
            <use height="100%" width="100%" y="0" x="0" id="use1912" transform="rotate(72)" xlink:href="#c" />
            <use height="100%" width="100%" y="0" x="0" id="use1914" transform="rotate(-72)" xlink:href="#c" />
            <use height="100%" width="100%" y="0" x="0" id="use1916" transform="rotate(144)" xlink:href="#c" />
            <use height="100%" width="100%" y="0" x="0" id="use1918" transform="rotate(-144)" xlink:href="#c" />
        </g>
        <path d="M 0,0 A 31.5,35 0 0 0 0,-70 31.5,35 0 0 0 0,0 m 0,-13 a 18.5,22 0 0 0 0,-44 18.5,22 0 0 0 0,44" id="O"
            inkscape:connector-curvature="0" style="fill-rule:evenodd" />
    </defs>
    <g id="Camada_x0020_1" transform="translate(-15546064,15989107)">
        <metadata id="CorelCorpID_0Corel-Layer" />
        <g id="_45144112">







            <g id="g8507" transform="matrix(1.084412,0,0,1.084412,-1923544.3,641043.37)">
                <path
                    style="color:#000000;clip-rule:nonzero;display:inline;overflow:visible;visibility:visible;opacity:1;isolation:auto;mix-blend-mode:normal;color-interpolation:sRGB;color-interpolation-filters:linearRGB;solid-color:#000000;solid-opacity:1;vector-effect:none;fill:#ffffff;fill-opacity:1;fill-rule:nonzero;stroke:none;stroke-width:3;stroke-linecap:round;stroke-linejoin:round;stroke-miterlimit:4;stroke-dasharray:none;stroke-dashoffset:0;stroke-opacity:1;marker:none;paint-order:markers stroke fill;color-rendering:auto;image-rendering:auto;shape-rendering:auto;text-rendering:auto;enable-background:accumulate"
                    d="M 858.89258,-576.12695 C 825.01822,-361.88694 791.85984,-146.85842 614.5,-90.820312 c 76.11715,-9.452148 158.88587,27.657048 244.39258,83.9316401 z m 0.0547,0 V -6.8886719 C 944.45397,-63.163264 1027.2227,-100.27246 1103.3398,-90.820312 925.98,-146.85842 892.82162,-361.88694 858.94727,-576.12695 Z"
                    transform="matrix(26458.334,0,0,26458.334,61970,118580)" id="path7756"
                    inkscape:connector-curvature="0" />
                <path sodipodi:nodetypes="ccsscccsscc" transform="matrix(26458.334,0,0,26458.334,61970,118580)"
                    inkscape:connector-curvature="0" id="path7890"
                    d="m 859.23144,-64.802301 0.11645,-30.663554 105.9061,-0.425665 c 67.53531,-0.271442 103.61821,-0.105272 105.47851,0.02731 1.5856,0.113006 6.2073,0.494433 7.623,0.691895 l 9.5088,1.92434 -9.5009,0.534047 c -60.5477,0.715833 -124.96967,24.250724 -209.64788,79.380069 -1.33187,0.867107 -9.62293,6.1583954 -9.67848,6.1583954 -0.0556,0 0.20789,-22.8422444 0.20789,-46.2301904 z"
                    style="color:#000000;clip-rule:nonzero;display:inline;overflow:visible;visibility:visible;opacity:1;isolation:auto;mix-blend-mode:normal;color-interpolation:sRGB;color-interpolation-filters:linearRGB;solid-color:#000000;solid-opacity:1;vector-effect:none;fill:#009b3a;fill-opacity:1;fill-rule:nonzero;stroke:none;stroke-width:0.61777538;stroke-linecap:round;stroke-linejoin:round;stroke-miterlimit:4;stroke-dasharray:none;stroke-dashoffset:0;stroke-opacity:1;marker:none;paint-order:markers stroke fill;color-rendering:auto;image-rendering:auto;shape-rendering:auto;text-rendering:auto;enable-background:accumulate" />
                <path sodipodi:nodetypes="ccccsssccccccc" inkscape:connector-curvature="0" id="path4799"
                    transform="matrix(26458.334,0,0,26458.334,61970,118580)"
                    d="m 856.1882,-555.60938 c -4.14496,19.84016 -7.49733,44.55732 -10.8527,64.18501 -5.82899,34.10602 -16.4701,85.29997 -16.4701,85.29997 l -2.54986,11.50917 c 0,0 -17.61167,69.65373 -28.66705,99.93288 -0.99719,2.73117 -3.92519,11.27024 -3.92519,11.36204 0,0.0918 15.92168,0.16601 32.80019,0.16601 h 30.6875 l 1.60172,-57.59375 c -0.49312,-38.05384 -0.17971,-76.79369 -0.23337,-108.73242 l 0.14775,-51.26953 0.0916,-27.54492 c -0.01,-15.14976 -0.42368,-34.88624 -1.02267,-35.92371 z"
                    style="color:#000000;clip-rule:nonzero;display:inline;overflow:visible;visibility:visible;opacity:1;isolation:auto;mix-blend-mode:normal;color-interpolation:sRGB;color-interpolation-filters:linearRGB;solid-color:#000000;solid-opacity:1;vector-effect:none;fill:#fedf00;fill-opacity:1;fill-rule:nonzero;stroke:none;stroke-width:0.64834195;stroke-linecap:round;stroke-linejoin:round;stroke-miterlimit:4;stroke-dasharray:none;stroke-dashoffset:0;stroke-opacity:1;marker:none;paint-order:markers stroke fill;color-rendering:auto;image-rendering:auto;shape-rendering:auto;text-rendering:auto;enable-background:accumulate" />
                <path sodipodi:nodetypes="cccccccccsccccscc" inkscape:connector-curvature="0" id="path7749"
                    transform="matrix(26458.334,0,0,26458.334,61970,118580)"
                    d="m 859.69959,-565.62567 -0.79067,37.06512 c 1.11782,27.81122 0.55464,55.64427 0.41339,83.46855 -0.4706,21.25892 0.28814,42.80732 -0.14561,64.06704 v 45.73287 l -1.01928,52.14365 h 33.25078 30.77539 l -0.27929,-0.66992 c -0.88711,-2.12974 -3.75732,-14.26949 -6.11919,-21.34591 -5.34626,-16.01799 -10.08917,-30.60613 -14.79903,-48.20487 -3.41794,-15.39142 -5.88222,-24.92854 -9.25653,-39.34072 -6.76438,-29.86229 -13.70419,-65.11596 -20.23155,-103.93076 -0.63812,-5.19971 -1.8329,-10.84647 -2.61062,-15.44532 -0.87834,-5.29485 -2.26483,-15.14 -3.3495,-21.8789 -1.08467,-6.7389 -2.06769,-14.1528 -2.45113,-16.47461 z"
                    style="color:#000000;clip-rule:nonzero;display:inline;overflow:visible;visibility:visible;opacity:1;isolation:auto;mix-blend-mode:normal;color-interpolation:sRGB;color-interpolation-filters:linearRGB;solid-color:#000000;solid-opacity:1;vector-effect:none;fill:#009b3a;fill-opacity:1;fill-rule:nonzero;stroke:none;stroke-width:0.61777538;stroke-linecap:round;stroke-linejoin:round;stroke-miterlimit:4;stroke-dasharray:none;stroke-dashoffset:0;stroke-opacity:1;marker:none;paint-order:markers stroke fill;color-rendering:auto;image-rendering:auto;shape-rendering:auto;text-rendering:auto;enable-background:accumulate" />
                <path sodipodi:nodetypes="ccccssssccccccccc" inkscape:connector-curvature="0" id="path7885"
                    transform="matrix(26458.334,0,0,26458.334,61970,118580)"
                    d="m 819.80078,-95.007812 -87.48743,-1.145009 -82.65015,0.03906 -7.28316,0.741929 c -2.89521,0.374994 -11.26361,1.830938 -11.4913,2.264231 -0.20485,0.389851 6.91094,0.547554 9.69238,0.599707 7.29003,0.13669 13.9343,0.560715 20.97592,1.304135 31.34625,3.30938 64.46973,13.151499 101.13989,29.89829 16.59886,7.580486 35.81858,17.517417 52.5709,27.31215 5.43919,3.305858 2.67071,1.50044 9.95703,5.869141 9.37929,5.624595 17.9719,11.133924 27.33959,17.191791 2.60279,1.6831686 5.27245,3.4612709 5.93247,3.4197396 -0.16202,-1.4363691 0.21911,-45.1380366 0.21911,-45.1380366 l -1.3469,-42.353226 h -18.7832 -18.78516 z"
                    style="color:#000000;clip-rule:nonzero;display:inline;overflow:visible;visibility:visible;opacity:1;isolation:auto;mix-blend-mode:normal;color-interpolation:sRGB;color-interpolation-filters:linearRGB;solid-color:#000000;solid-opacity:1;vector-effect:none;fill:#fedf00;fill-opacity:1;fill-rule:nonzero;stroke:none;stroke-width:0.43683314;stroke-linecap:round;stroke-linejoin:round;stroke-miterlimit:4;stroke-dasharray:none;stroke-dashoffset:0;stroke-opacity:1;marker:none;paint-order:markers stroke fill;color-rendering:auto;image-rendering:auto;shape-rendering:auto;text-rendering:auto;enable-background:accumulate" />
                <path id="path214" transform="matrix(26458.334,0,0,26458.334,61970,118580)"
                    d="M 858.89258,-576.12695 C 825.01822,-361.88694 791.85984,-146.85842 614.5,-90.820312 c 76.11715,-9.452148 158.88587,27.657048 244.39258,83.9316401 z m 0.0547,0 V -6.8886719 C 944.45397,-63.163264 1027.2227,-100.27246 1103.3398,-90.820312 925.98,-146.85842 892.82162,-361.88694 858.94727,-576.12695 Z"
                    style="color:#000000;clip-rule:nonzero;display:inline;overflow:visible;visibility:visible;opacity:1;isolation:auto;mix-blend-mode:normal;color-interpolation:sRGB;color-interpolation-filters:linearRGB;solid-color:#000000;solid-opacity:1;vector-effect:none;fill:none;fill-opacity:1;fill-rule:nonzero;stroke:#000000;stroke-width:2;stroke-linecap:round;stroke-linejoin:round;stroke-miterlimit:4;stroke-dasharray:none;stroke-dashoffset:0;stroke-opacity:1;marker:none;paint-order:markers stroke fill;color-rendering:auto;image-rendering:auto;shape-rendering:auto;text-rendering:auto;enable-background:accumulate"
                    inkscape:connector-curvature="0" />
                <path inkscape:connector-curvature="0" id="path4795" d="m 21072155,-7333082.7 h 3430810"
                    style="color:#000000;clip-rule:nonzero;display:inline;overflow:visible;visibility:visible;opacity:1;isolation:auto;mix-blend-mode:normal;color-interpolation:sRGB;color-interpolation-filters:linearRGB;solid-color:#000000;solid-opacity:1;vector-effect:none;fill:#f8c300;fill-opacity:1;fill-rule:nonzero;stroke:#000000;stroke-width:60996.96043617;stroke-linecap:round;stroke-linejoin:round;stroke-miterlimit:4;stroke-dasharray:none;stroke-dashoffset:0;stroke-opacity:1;marker:none;paint-order:markers stroke fill;color-rendering:auto;image-rendering:auto;shape-rendering:auto;text-rendering:auto;enable-background:accumulate" />
                <path sodipodi:nodetypes="ccc" inkscape:connector-curvature="0" id="path7879"
                    d="m 22771050,-2436599.8 h -5392590 c -349486,-12252.7 -587583,64034.9 -822924,94179.1"
                    style="color:#000000;clip-rule:nonzero;display:inline;overflow:visible;visibility:visible;opacity:1;isolation:auto;mix-blend-mode:normal;color-interpolation:sRGB;color-interpolation-filters:linearRGB;solid-color:#000000;solid-opacity:1;vector-effect:none;fill:none;fill-opacity:1;fill-rule:nonzero;stroke:#000000;stroke-width:52916.66796875;stroke-linecap:round;stroke-linejoin:round;stroke-miterlimit:4;stroke-dasharray:none;stroke-dashoffset:0;stroke-opacity:1;marker:none;paint-order:markers stroke fill;color-rendering:auto;image-rendering:auto;shape-rendering:auto;text-rendering:auto;enable-background:accumulate" />
                <path
                    style="color:#000000;clip-rule:nonzero;display:inline;overflow:visible;visibility:visible;opacity:1;isolation:auto;mix-blend-mode:normal;color-interpolation:sRGB;color-interpolation-filters:linearRGB;solid-color:#000000;solid-opacity:1;vector-effect:none;fill:none;fill-opacity:1;fill-rule:nonzero;stroke:#000000;stroke-width:52916.66796875;stroke-linecap:round;stroke-linejoin:round;stroke-miterlimit:4;stroke-dasharray:none;stroke-dashoffset:0;stroke-opacity:1;marker:none;paint-order:markers stroke fill;color-rendering:auto;image-rendering:auto;shape-rendering:auto;text-rendering:auto;enable-background:accumulate"
                    d="m 22811503,-2436599.8 h 5392590 c 349486,-12252.7 594325,74629.6 829666,104773.8" id="path7881"
                    inkscape:connector-curvature="0" sodipodi:nodetypes="ccc" />
                <g transform="translate(-3663735.4,-7224625.2)" id="g7762">
                    <path sodipodi:nodetypes="ccscsccccsccsccc"
                        style="color:#000000;clip-rule:nonzero;display:inline;overflow:visible;visibility:visible;opacity:1;isolation:auto;mix-blend-mode:normal;color-interpolation:sRGB;color-interpolation-filters:linearRGB;solid-color:#000000;solid-opacity:1;vector-effect:none;fill:#ffffff;fill-opacity:1;fill-rule:nonzero;stroke:none;stroke-width:79375;stroke-linecap:round;stroke-linejoin:round;stroke-miterlimit:4;stroke-dasharray:none;stroke-dashoffset:0;stroke-opacity:1;marker:none;paint-order:markers stroke fill;color-rendering:auto;image-rendering:auto;shape-rendering:auto;text-rendering:auto;enable-background:accumulate"
                        d="m 24330762,5916152 c -94058,-42852.8 -219481,-75284.3 -227722,-106020.7 -5022,-18730.3 -9225,-992024.2 -9341,-2244450.6 l -211,-2277138.6 94526,-188541.9 c 198320,-395569.25 449423,-1000782.74 645706,-1556298.48 l 96677,-273611.19 1518773,3927.48 1518774,3927.21 120067,331325.81 c 212021,585074.72 384423,1002249.36 591664,1431690.07 l 129427,268196.8 v 2299855.7 c 0,2082951.7 -2299,2300737.9 -24377,2309209.9 -24730,9489.8 -4236091,4804 -4452602,-4795.9 -117141,-47673.8 64020,4086.5 -1361,2724.4 z"
                        id="path7731" inkscape:connector-curvature="0" />
                    <path sodipodi:nodetypes="ccscsccccsccscccc" inkscape:connector-curvature="0" id="path7758"
                        d="m 24330762,5916152 c -87208,-46615 -189135,-73486.2 -229972,-117614.9 -3969,-265703.3 -6993,-1173269.8 -7091,-2232856.4 l -211,-2277138.6 94526,-188541.9 c 198320,-395569.25 449423,-1000782.74 645706,-1556298.48 l 104850,-273611.19 1510600,3927.48 1518774,3927.21 120067,331325.81 c 212021,585074.72 384423,1002249.36 591664,1431690.07 l 129427,268196.8 v 2299855.7 c 0,1435737.5 -9001,2203272 -9001,2203272 0,0 -78777,38316.4 -222793,109262.1 -882491,5472.5 -4014051,2859.3 -4200235,-5395.9 z"
                        style="color:#000000;clip-rule:nonzero;display:inline;overflow:visible;visibility:visible;opacity:1;isolation:auto;mix-blend-mode:normal;color-interpolation:sRGB;color-interpolation-filters:linearRGB;solid-color:#000000;solid-opacity:1;vector-effect:none;fill:none;fill-opacity:1;fill-rule:nonzero;stroke:#000000;stroke-width:52916.66796875;stroke-linecap:round;stroke-linejoin:round;stroke-miterlimit:4;stroke-dasharray:none;stroke-dashoffset:0;stroke-opacity:1;marker:none;paint-order:markers stroke fill;color-rendering:auto;image-rendering:auto;shape-rendering:auto;text-rendering:auto;enable-background:accumulate" />
                </g>
                <g id="g8307"
                    style="clip-rule:evenodd;fill-rule:evenodd;image-rendering:optimizeQuality;shape-rendering:geometricPrecision;text-rendering:geometricPrecision"
                    transform="translate(2445367.6,-10762827)">
                    <g id="g8279">
                        <g style="opacity:1;vector-effect:none;fill:#fedf00;fill-opacity:1;stroke:#000000;stroke-width:60996.96043617;stroke-linecap:square;stroke-linejoin:miter;stroke-miterlimit:4;stroke-dasharray:none;stroke-dashoffset:0;stroke-opacity:1;marker:none;paint-order:markers stroke fill"
                            transform="translate(3590647,2274944.8)" id="g8098">
                            <path
                                style="color:#000000;clip-rule:nonzero;display:inline;overflow:visible;visibility:visible;opacity:1;isolation:auto;mix-blend-mode:normal;color-interpolation:sRGB;color-interpolation-filters:linearRGB;solid-color:#000000;solid-opacity:1;vector-effect:none;fill:#fedf00;fill-opacity:1;fill-rule:nonzero;stroke:#000000;stroke-width:60996.96043617;stroke-linecap:square;stroke-linejoin:miter;stroke-miterlimit:4;stroke-dasharray:none;stroke-dashoffset:0;stroke-opacity:1;marker:none;paint-order:markers stroke fill;color-rendering:auto;image-rendering:auto;shape-rendering:auto;text-rendering:auto;enable-background:accumulate"
                                d="m 15645635,757091.2 h 364210 v 592610 h -364210 v -592610" id="path7978"
                                inkscape:connector-curvature="0" />
                            <path inkscape:connector-curvature="0" id="path8029"
                                d="m 17857455,757091.2 h -364210 v 592610 h 364210 v -592610"
                                style="color:#000000;clip-rule:nonzero;display:inline;overflow:visible;visibility:visible;opacity:1;isolation:auto;mix-blend-mode:normal;color-interpolation:sRGB;color-interpolation-filters:linearRGB;solid-color:#000000;solid-opacity:1;vector-effect:none;fill:#fedf00;fill-opacity:1;fill-rule:nonzero;stroke:#000000;stroke-width:60996.96043617;stroke-linecap:square;stroke-linejoin:miter;stroke-miterlimit:4;stroke-dasharray:none;stroke-dashoffset:0;stroke-opacity:1;marker:none;paint-order:markers stroke fill;color-rendering:auto;image-rendering:auto;shape-rendering:auto;text-rendering:auto;enable-background:accumulate" />
                        </g>
                        <rect y="3032036" x="19983658" height="592610" width="717070" id="rect8027"
                            style="color:#000000;clip-rule:nonzero;display:inline;overflow:visible;visibility:visible;opacity:1;isolation:auto;mix-blend-mode:normal;color-interpolation:sRGB;color-interpolation-filters:linearRGB;solid-color:#000000;solid-opacity:1;vector-effect:none;fill:#fedf00;fill-opacity:1;fill-rule:nonzero;stroke:#000000;stroke-width:60996.96043617;stroke-linecap:square;stroke-linejoin:miter;stroke-miterlimit:4;stroke-dasharray:none;stroke-dashoffset:0;stroke-opacity:1;marker:none;paint-order:markers stroke fill;color-rendering:auto;image-rendering:auto;shape-rendering:auto;text-rendering:auto;enable-background:accumulate" />
                        <rect y="3452760" x="19159956" height="518420.97" width="2364473.5" id="rect8056"
                            style="color:#000000;clip-rule:nonzero;display:inline;overflow:visible;visibility:visible;opacity:1;isolation:auto;mix-blend-mode:normal;color-interpolation:sRGB;color-interpolation-filters:linearRGB;solid-color:#000000;solid-opacity:1;vector-effect:none;fill:#fedf00;fill-opacity:1;fill-rule:nonzero;stroke:#000000;stroke-width:60996.96043617;stroke-linecap:square;stroke-linejoin:miter;stroke-miterlimit:4;stroke-dasharray:none;stroke-dashoffset:0;stroke-opacity:1;marker:none;paint-order:markers stroke fill;color-rendering:auto;image-rendering:auto;shape-rendering:auto;text-rendering:auto;enable-background:accumulate" />
                        <g style="opacity:1;vector-effect:none;fill:#fedf00;fill-opacity:1;stroke:#000000;stroke-width:60996.96043617;stroke-linecap:square;stroke-linejoin:miter;stroke-miterlimit:4;stroke-dasharray:none;stroke-dashoffset:0;stroke-opacity:1;marker:none;paint-order:markers stroke fill"
                            transform="translate(3590647,2274944.8)" id="g8106">
                            <g style="clip-rule:evenodd;vector-effect:none;fill:#fedf00;fill-opacity:1;fill-rule:evenodd;stroke:#000000;stroke-width:60996.96043617;stroke-linecap:square;stroke-linejoin:miter;stroke-miterlimit:4;stroke-dasharray:none;stroke-dashoffset:0;stroke-opacity:1;marker:none;paint-order:markers stroke fill;image-rendering:optimizeQuality;shape-rendering:geometricPrecision;text-rendering:geometricPrecision"
                                id="g55-8-8" transform="translate(10001555,-6922708.8)" />
                            <path
                                style="color:#000000;clip-rule:nonzero;display:inline;overflow:visible;visibility:visible;opacity:1;isolation:auto;mix-blend-mode:normal;color-interpolation:sRGB;color-interpolation-filters:linearRGB;solid-color:#000000;solid-opacity:1;vector-effect:none;fill:#fedf00;fill-opacity:1;fill-rule:nonzero;stroke:#000000;stroke-width:60996.96043617;stroke-linecap:square;stroke-linejoin:miter;stroke-miterlimit:4;stroke-dasharray:none;stroke-dashoffset:0;stroke-opacity:1;marker:none;paint-order:markers stroke fill;color-rendering:auto;image-rendering:auto;shape-rendering:auto;text-rendering:auto;enable-background:accumulate"
                                d="m 15516316,1023021.2 v 193484.5 l -233010,182155.6 v 239039.9 h 520760 v -614680 h -287750"
                                id="path8145" inkscape:connector-curvature="0" />
                            <rect
                                style="color:#000000;clip-rule:nonzero;display:inline;overflow:visible;visibility:visible;opacity:1;isolation:auto;mix-blend-mode:normal;color-interpolation:sRGB;color-interpolation-filters:linearRGB;solid-color:#000000;solid-opacity:1;vector-effect:none;fill:#fedf00;fill-opacity:1;fill-rule:nonzero;stroke:#000000;stroke-width:60996.96043617;stroke-linecap:square;stroke-linejoin:miter;stroke-miterlimit:4;stroke-dasharray:none;stroke-dashoffset:0;stroke-opacity:1;marker:none;paint-order:markers stroke fill;color-rendering:auto;image-rendering:auto;shape-rendering:auto;text-rendering:auto;enable-background:accumulate"
                                id="rect8031" width="665900" height="85370" x="15210736" y="1612091.2" />
                            <path inkscape:connector-curvature="0" id="path7875-1-6"
                                d="m 17982505,1023021.2 v 193484.5 l 233010,182155.6 v 239039.9 h -520760 v -614680 h 287750"
                                style="color:#000000;clip-rule:nonzero;display:inline;overflow:visible;visibility:visible;opacity:1;isolation:auto;mix-blend-mode:normal;color-interpolation:sRGB;color-interpolation-filters:linearRGB;solid-color:#000000;solid-opacity:1;vector-effect:none;fill:#fedf00;fill-opacity:1;fill-rule:nonzero;stroke:#000000;stroke-width:60996.96043617;stroke-linecap:square;stroke-linejoin:miter;stroke-miterlimit:4;stroke-dasharray:none;stroke-dashoffset:0;stroke-opacity:1;marker:none;paint-order:markers stroke fill;color-rendering:auto;image-rendering:auto;shape-rendering:auto;text-rendering:auto;enable-background:accumulate" />
                            <rect y="1612091.2" x="-18292354" height="85370" width="665900" id="rect8033"
                                style="color:#000000;clip-rule:nonzero;display:inline;overflow:visible;visibility:visible;opacity:1;isolation:auto;mix-blend-mode:normal;color-interpolation:sRGB;color-interpolation-filters:linearRGB;solid-color:#000000;solid-opacity:1;vector-effect:none;fill:#fedf00;fill-opacity:1;fill-rule:nonzero;stroke:#000000;stroke-width:60996.96043617;stroke-linecap:square;stroke-linejoin:miter;stroke-miterlimit:4;stroke-dasharray:none;stroke-dashoffset:0;stroke-opacity:1;marker:none;paint-order:markers stroke fill;color-rendering:auto;image-rendering:auto;shape-rendering:auto;text-rendering:auto;enable-background:accumulate"
                                transform="scale(-1,1)" />
                        </g>
                        <g style="opacity:1;vector-effect:none;fill:#fedf00;fill-opacity:1;stroke:#000000;stroke-width:60996.96043617;stroke-linecap:square;stroke-linejoin:miter;stroke-miterlimit:4;stroke-dasharray:none;stroke-dashoffset:0;stroke-opacity:1;marker:none;paint-order:markers stroke fill"
                            transform="translate(3590647.9,2274944.8)" id="g8116">
                            <g id="g8094" transform="translate(625.54687)"
                                style="vector-effect:none;fill:#fedf00;fill-opacity:1;stroke:#000000;stroke-width:60996.96043617;stroke-linecap:square;stroke-linejoin:miter;stroke-miterlimit:4;stroke-dasharray:none;stroke-dashoffset:0;stroke-opacity:1;marker:none;paint-order:markers stroke fill">
                                <g transform="translate(620273)" id="g8086"
                                    style="vector-effect:none;fill:#fedf00;fill-opacity:1;stroke:#000000;stroke-width:60996.96043617;stroke-linecap:square;stroke-linejoin:miter;stroke-miterlimit:4;stroke-dasharray:none;stroke-dashoffset:0;stroke-opacity:1;marker:none;paint-order:markers stroke fill">
                                    <rect y="1023021.2" x="16210925" height="652018.94" width="459714.66" id="rect8082"
                                        style="color:#000000;clip-rule:nonzero;display:inline;overflow:visible;visibility:visible;opacity:1;isolation:auto;mix-blend-mode:normal;color-interpolation:sRGB;color-interpolation-filters:linearRGB;solid-color:#000000;solid-opacity:1;vector-effect:none;fill:#fedf00;fill-opacity:1;fill-rule:nonzero;stroke:#000000;stroke-width:60996.96043617;stroke-linecap:square;stroke-linejoin:miter;stroke-miterlimit:4;stroke-dasharray:none;stroke-dashoffset:0;stroke-opacity:1;marker:none;paint-order:markers stroke fill;color-rendering:auto;image-rendering:auto;shape-rendering:auto;text-rendering:auto;enable-background:accumulate" />
                                    <rect
                                        style="color:#000000;clip-rule:nonzero;display:inline;overflow:visible;visibility:visible;opacity:1;isolation:auto;mix-blend-mode:normal;color-interpolation:sRGB;color-interpolation-filters:linearRGB;solid-color:#000000;solid-opacity:1;vector-effect:none;fill:#fedf00;fill-opacity:1;fill-rule:nonzero;stroke:#000000;stroke-width:60996.96043617;stroke-linecap:square;stroke-linejoin:miter;stroke-miterlimit:4;stroke-dasharray:none;stroke-dashoffset:0;stroke-opacity:1;marker:none;paint-order:markers stroke fill;color-rendering:auto;image-rendering:auto;shape-rendering:auto;text-rendering:auto;enable-background:accumulate"
                                        id="rect8084" width="459714.66" height="279908.94" x="16210925" y="1395131.2" />
                                </g>
                                <g id="g8080"
                                    style="vector-effect:none;fill:#fedf00;fill-opacity:1;stroke:#000000;stroke-width:60996.96043617;stroke-linecap:square;stroke-linejoin:miter;stroke-miterlimit:4;stroke-dasharray:none;stroke-dashoffset:0;stroke-opacity:1;marker:none;paint-order:markers stroke fill">
                                    <rect
                                        style="color:#000000;clip-rule:nonzero;display:inline;overflow:visible;visibility:visible;opacity:1;isolation:auto;mix-blend-mode:normal;color-interpolation:sRGB;color-interpolation-filters:linearRGB;solid-color:#000000;solid-opacity:1;vector-effect:none;fill:#fedf00;fill-opacity:1;fill-rule:nonzero;stroke:#000000;stroke-width:60996.96043617;stroke-linecap:square;stroke-linejoin:miter;stroke-miterlimit:4;stroke-dasharray:none;stroke-dashoffset:0;stroke-opacity:1;marker:none;paint-order:markers stroke fill;color-rendering:auto;image-rendering:auto;shape-rendering:auto;text-rendering:auto;enable-background:accumulate"
                                        id="rect8058" width="459714.66" height="652018.94" x="16210925" y="1023021.2" />
                                    <rect y="1395131.2" x="16210925" height="279908.94" width="459714.66" id="rect8062"
                                        style="color:#000000;clip-rule:nonzero;display:inline;overflow:visible;visibility:visible;opacity:1;isolation:auto;mix-blend-mode:normal;color-interpolation:sRGB;color-interpolation-filters:linearRGB;solid-color:#000000;solid-opacity:1;vector-effect:none;fill:#fedf00;fill-opacity:1;fill-rule:nonzero;stroke:#000000;stroke-width:60996.96043617;stroke-linecap:square;stroke-linejoin:miter;stroke-miterlimit:4;stroke-dasharray:none;stroke-dashoffset:0;stroke-opacity:1;marker:none;paint-order:markers stroke fill;color-rendering:auto;image-rendering:auto;shape-rendering:auto;text-rendering:auto;enable-background:accumulate" />
                                </g>
                            </g>
                            <rect y="1613653.8" x="16130331" height="82233.875" width="1242426.8" id="rect8035"
                                style="color:#000000;clip-rule:nonzero;display:inline;overflow:visible;visibility:visible;opacity:1;isolation:auto;mix-blend-mode:normal;color-interpolation:sRGB;color-interpolation-filters:linearRGB;solid-color:#000000;solid-opacity:1;vector-effect:none;fill:#fedf00;fill-opacity:1;fill-rule:nonzero;stroke:#000000;stroke-width:60996.96043617;stroke-linecap:square;stroke-linejoin:miter;stroke-miterlimit:4;stroke-dasharray:none;stroke-dashoffset:0;stroke-opacity:1;marker:none;paint-order:markers stroke fill;color-rendering:auto;image-rendering:auto;shape-rendering:auto;text-rendering:auto;enable-background:accumulate" />
                        </g>
                    </g>
                    <g id="g7873" transform="translate(3778568.8,-4618219.6)">
                        <rect
                            style="color:#000000;clip-rule:nonzero;display:inline;overflow:visible;visibility:visible;opacity:1;isolation:auto;mix-blend-mode:normal;color-interpolation:sRGB;color-interpolation-filters:linearRGB;solid-color:#000000;solid-opacity:1;vector-effect:none;fill:#009b3a;fill-opacity:1;fill-rule:nonzero;stroke:none;stroke-width:79375;stroke-linecap:round;stroke-linejoin:round;stroke-miterlimit:4;stroke-dasharray:none;stroke-dashoffset:0;stroke-opacity:1;marker:none;paint-order:markers stroke fill;color-rendering:auto;image-rendering:auto;shape-rendering:auto;text-rendering:auto;enable-background:accumulate"
                            id="rect7869" width="3282112.5" height="4472293" x="14922567" y="8645110" />
                        <rect y="8645110" x="14922567" height="4472293" width="3282112.5" id="rect7867"
                            style="color:#000000;clip-rule:nonzero;display:inline;overflow:visible;visibility:visible;opacity:1;isolation:auto;mix-blend-mode:normal;color-interpolation:sRGB;color-interpolation-filters:linearRGB;solid-color:#000000;solid-opacity:1;vector-effect:none;fill:none;fill-opacity:1;fill-rule:nonzero;stroke:#000000;stroke-width:79375;stroke-linecap:round;stroke-linejoin:round;stroke-miterlimit:4;stroke-dasharray:none;stroke-dashoffset:0;stroke-opacity:1;marker:none;paint-order:markers stroke fill;color-rendering:auto;image-rendering:auto;shape-rendering:auto;text-rendering:auto;enable-background:accumulate" />
                    </g>
                    <path
                        style="color:#000000;clip-rule:nonzero;display:inline;overflow:visible;visibility:visible;opacity:1;isolation:auto;mix-blend-mode:normal;color-interpolation:sRGB;color-interpolation-filters:linearRGB;solid-color:#000000;solid-opacity:1;vector-effect:none;fill:#fedf00;fill-opacity:1;fill-rule:nonzero;stroke:none;stroke-width:52916.66796875;stroke-linecap:butt;stroke-linejoin:miter;stroke-miterlimit:4;stroke-dasharray:none;stroke-dashoffset:0;stroke-opacity:1;marker:none;paint-order:markers stroke fill;color-rendering:auto;image-rendering:auto;shape-rendering:auto;text-rendering:auto;enable-background:accumulate"
                        d="m 20341624,4695535.4 -229289,229185 h 160507 v 297966.3 l -160507,160455.7 v 650606 h -650038 l -160455,160455 h -297966 v -160455 l -229185,229288 229185,229289 v -160507 h 297966 l 160455,160507 h 650038 v 650606.1 l 160456,160455 v 297966.9 h -160456 l 229289,229185 229288,-229185 h -160507 v -297966.9 l 160507,-160455 v -650916.1 l -229288,229185.1 -228979,-228875.1 h 569 l -229185,-229289 229185,-229288 h -569 l 228979,-228875 229288,229185 v -650916 l -160455,-160455.7 v -297966.3 h 160455 z m 229546,1338213 229185,229288 -229185,229289 h 650917 l 160455,-160456 h 297967 v 160456 l 229184,-229289 -229184,-229288 v 160507 h -297967 l -160455,-160507 z"
                        id="path221-1" inkscape:connector-curvature="0" />
                    <rect
                        style="color:#000000;clip-rule:nonzero;display:inline;overflow:visible;visibility:visible;opacity:1;isolation:auto;mix-blend-mode:normal;color-interpolation:sRGB;color-interpolation-filters:linearRGB;solid-color:#000000;solid-opacity:1;vector-effect:none;fill:none;fill-opacity:1;fill-rule:nonzero;stroke:none;stroke-width:79375;stroke-linecap:round;stroke-linejoin:round;stroke-miterlimit:4;stroke-dasharray:none;stroke-dashoffset:0;stroke-opacity:1;marker:none;paint-order:markers stroke fill;color-rendering:auto;image-rendering:auto;shape-rendering:auto;text-rendering:auto;enable-background:accumulate"
                        id="rect7865" width="3328890" height="4500570" x="18677746" y="4001675.2" />
                </g>
                <g id="text8404-7"
                    style="font-style:normal;font-variant:normal;font-weight:normal;font-stretch:normal;font-size:551116.3125px;line-height:125%;font-family:Arial;-inkscape-font-specification:Arial;font-variant-ligatures:normal;font-variant-caps:normal;font-variant-numeric:normal;font-feature-settings:normal;text-align:center;letter-spacing:0px;word-spacing:0px;writing-mode:lr-tb;text-anchor:middle;clip-rule:evenodd;fill:#000000;fill-opacity:1;fill-rule:evenodd;stroke:#000000;stroke-width:2645.83349609;stroke-linecap:butt;stroke-linejoin:miter;stroke-opacity:1;image-rendering:optimizeQuality;shape-rendering:geometricPrecision;text-rendering:geometricPrecision"
                    transform="scale(0.88415164,1.1310277)" aria-label="VENTVRIS VENTIS">
                    <path id="path8424"
                        style="font-style:normal;font-variant:normal;font-weight:normal;font-stretch:normal;font-family:Arial;-inkscape-font-specification:Arial;stroke:#000000;stroke-width:2645.83349609"
                        d="m 23490050,-1393456 -152849,-394500.3 h 56511 l 102527,286591.3 q 12378,34444.8 20721,64583.9 9149,-32291.9 21258,-64583.9 l 106564,-286591.3 h 53282 l -154464,394500.3 z"
                        inkscape:connector-curvature="0" />
                    <path id="path8426"
                        style="font-style:normal;font-variant:normal;font-weight:normal;font-stretch:normal;font-family:Arial;-inkscape-font-specification:Arial;stroke:#000000;stroke-width:2645.83349609"
                        d="m 23746502,-1393456 v -394500.3 h 285245 v 46554.3 h -233040 v 120825.8 h 218240 v 46285.2 h -218240 v 134280.7 h 242190 v 46554.3 z"
                        inkscape:connector-curvature="0" />
                    <path id="path8428"
                        style="font-style:normal;font-variant:normal;font-weight:normal;font-stretch:normal;font-family:Arial;-inkscape-font-specification:Arial;stroke:#000000;stroke-width:2645.83349609"
                        d="m 24113015,-1393456 v -394500.3 h 53551 l 207207,309733.9 v -309733.9 h 50053 v 394500.3 h -53551 l -207207,-310002.9 v 310002.9 z"
                        inkscape:connector-curvature="0" />
                    <path id="path8430"
                        style="font-style:normal;font-variant:normal;font-weight:normal;font-stretch:normal;font-family:Arial;-inkscape-font-specification:Arial;stroke:#000000;stroke-width:2645.83349609"
                        d="m 24612196,-1393456 v -347946 h -129976 v -46554.3 h 312694 v 46554.3 h -130513 v 347946 z"
                        inkscape:connector-curvature="0" />
                    <path id="path8432"
                        style="font-style:normal;font-variant:normal;font-weight:normal;font-stretch:normal;font-family:Arial;-inkscape-font-specification:Arial;stroke:#000000;stroke-width:2645.83349609"
                        d="m 24961487,-1393456 -152849,-394500.3 h 56511 l 102527,286591.3 q 12379,34444.8 20721,64583.9 9149,-32291.9 21259,-64583.9 l 106563,-286591.3 h 53282 l -154463,394500.3 z"
                        inkscape:connector-curvature="0" />
                    <path id="path8434"
                        style="font-style:normal;font-variant:normal;font-weight:normal;font-stretch:normal;font-family:Arial;-inkscape-font-specification:Arial;stroke:#000000;stroke-width:2645.83349609"
                        d="m 25217670,-1393456 v -394500.3 h 174915 q 52743,0 80192,10764 27448,10494.9 43863,37404.9 16415,26910 16415,59471.1 0,41979.5 -27179,70773.2 -27179,28793.7 -83959,36597.6 20720,9956.6 31484,19644.2 22874,20989.8 43325,52474.5 l 68621,107370.8 h -65660 l -52206,-82075.4 q -22873,-35521.2 -37674,-54358.2 -14800,-18837 -26641,-26371.8 -11571,-7534.7 -23680,-10494.8 -8881,-1883.7 -29063,-1883.7 h -60548 v 175183.9 z m 52205,-220392.7 h 112215 q 35790,0 55973,-7265.7 20182,-7534.8 30677,-23680.8 10495,-16415.1 10495,-35521.1 0,-27986.4 -20452,-46016.1 -20182,-18029.7 -64045,-18029.7 h -124863 z"
                        inkscape:connector-curvature="0" />
                    <path id="path8436"
                        style="font-style:normal;font-variant:normal;font-weight:normal;font-stretch:normal;font-family:Arial;-inkscape-font-specification:Arial;stroke:#000000;stroke-width:2645.83349609"
                        d="m 25624011,-1393456 v -394500.3 h 52205 v 394500.3 z" inkscape:connector-curvature="0" />
                    <path id="path8438"
                        style="font-style:normal;font-variant:normal;font-weight:normal;font-stretch:normal;font-family:Arial;-inkscape-font-specification:Arial;stroke:#000000;stroke-width:2645.83349609"
                        d="m 25750218,-1520202 49246,-4305.6 q 3498,29601 16146,48707.1 12916,18837 39826,30677.3 26910,11571.3 60548,11571.3 29870,0 52743,-8880.3 22874,-8880.2 33907,-24218.9 11302,-15607.8 11302,-33906.6 0,-18567.9 -10764,-32292 -10764,-13993.2 -35521,-23411.7 -15877,-6189.3 -70235,-19106 -54358,-13185.9 -76155,-24757.2 -28256,-14800.5 -42249,-36597.6 -13724,-22066.2 -13724,-49245.2 0,-29870.1 16953,-55703.7 16954,-26102.7 49515,-39557.7 32561,-13454.9 72387,-13454.9 43864,0 77232,14262.2 33638,13993.2 51667,41441.4 18030,27448.2 19375,62162.1 l -50052,3767.3 q -4037,-37404.8 -27448,-56510.9 -23143,-19106.1 -68621,-19106.1 -47361,0 -69158,17491.5 -21528,17222.4 -21528,41710.5 0,21258.8 15338,34982.9 15070,13724.1 78577,28255.5 63777,14262.3 87458,25026.3 34445,15876.9 50860,40364.9 16415,24219 16415,55972.8 0,31484.7 -18030,59471 -18030,27717.3 -51936,43325.1 -33638,15338.7 -75886,15338.7 -53551,0 -89880,-15607.8 -36059,-15607.8 -56780,-46823.4 -20451,-31484.6 -21528,-71042.3 z"
                        inkscape:connector-curvature="0" />
                    <path id="path8440"
                        style="font-style:normal;font-variant:normal;font-weight:normal;font-stretch:normal;font-family:Arial;-inkscape-font-specification:Arial;stroke:#000000;stroke-width:2645.83349609"
                        d="m 26401709,-1393456 -152849,-394500.3 h 56511 l 102527,286591.3 q 12379,34444.8 20721,64583.9 9149,-32291.9 21259,-64583.9 l 106563,-286591.3 h 53282 l -154463,394500.3 z"
                        inkscape:connector-curvature="0" />
                    <path id="path8442"
                        style="font-style:normal;font-variant:normal;font-weight:normal;font-stretch:normal;font-family:Arial;-inkscape-font-specification:Arial;stroke:#000000;stroke-width:2645.83349609"
                        d="m 26658161,-1393456 v -394500.3 h 285246 v 46554.3 h -233041 v 120825.8 h 218240 v 46285.2 h -218240 v 134280.7 h 242190 v 46554.3 z"
                        inkscape:connector-curvature="0" />
                    <path id="path8444"
                        style="font-style:normal;font-variant:normal;font-weight:normal;font-stretch:normal;font-family:Arial;-inkscape-font-specification:Arial;stroke:#000000;stroke-width:2645.83349609"
                        d="m 27024675,-1393456 v -394500.3 h 53551 l 207207,309733.9 v -309733.9 h 50052 v 394500.3 h -53551 l -207206,-310002.9 v 310002.9 z"
                        inkscape:connector-curvature="0" />
                    <path id="path8446"
                        style="font-style:normal;font-variant:normal;font-weight:normal;font-stretch:normal;font-family:Arial;-inkscape-font-specification:Arial;stroke:#000000;stroke-width:2645.83349609"
                        d="m 27523855,-1393456 v -347946 h -129975 v -46554.3 h 312694 v 46554.3 h -130514 v 347946 z"
                        inkscape:connector-curvature="0" />
                    <path id="path8448"
                        style="font-style:normal;font-variant:normal;font-weight:normal;font-stretch:normal;font-family:Arial;-inkscape-font-specification:Arial;stroke:#000000;stroke-width:2645.83349609"
                        d="m 27769274,-1393456 v -394500.3 h 52205 v 394500.3 z" inkscape:connector-curvature="0" />
                    <path id="path8450"
                        style="font-style:normal;font-variant:normal;font-weight:normal;font-stretch:normal;font-family:Arial;-inkscape-font-specification:Arial;stroke:#000000;stroke-width:2645.83349609"
                        d="m 27895482,-1520202 49245,-4305.6 q 3498,29601 16146,48707.1 12917,18837 39827,30677.3 26910,11571.3 60547,11571.3 29870,0 52744,-8880.3 22873,-8880.2 33906,-24218.9 11302,-15607.8 11302,-33906.6 0,-18567.9 -10764,-32292 -10764,-13993.2 -35521,-23411.7 -15877,-6189.3 -70235,-19106 -54358,-13185.9 -76155,-24757.2 -28255,-14800.5 -42249,-36597.6 -13724,-22066.2 -13724,-49245.2 0,-29870.1 16954,-55703.7 16953,-26102.7 49514,-39557.7 32561,-13454.9 72388,-13454.9 43863,0 77231,14262.2 33638,13993.2 51667,41441.4 18030,27448.2 19376,62162.1 l -50053,3767.3 q -4036,-37404.8 -27448,-56510.9 -23143,-19106.1 -68620,-19106.1 -47362,0 -69159,17491.5 -21528,17222.4 -21528,41710.5 0,21258.8 15339,34982.9 15069,13724.1 78577,28255.5 63776,14262.3 87457,25026.3 34445,15876.9 50860,40364.9 16415,24219 16415,55972.8 0,31484.7 -18030,59471 -18029,27717.3 -51936,43325.1 -33637,15338.7 -75886,15338.7 -53551,0 -89879,-15607.8 -36060,-15607.8 -56780,-46823.4 -20452,-31484.6 -21528,-71042.3 z"
                        inkscape:connector-curvature="0" />
                </g>
            </g>
        </g>
    </g>
</svg>